<svg width="350" height="300" xmlns="http://www.w3.org/2000/svg">
 <metadata id="metadata3592">image/svg+xmlbash (3)</metadata>
 <!-- Generator: Sketch 3.6.1 (26313) - http://www.bohemiancoding.com/sketch -->
 <title>bash (3)</title>
 <desc>Created with Sketch.</desc>

 <g>
  <title>Layer 1</title>
  <path stroke="null" fill="#3b82f6" fill-rule="evenodd" id="Shape" d="m311.75735,61.28302l-97.42864,-55.18409c-11.53693,-6.52258 -25.88329,-6.52258 -37.42022,0l-97.42864,55.18409c-11.78436,6.7071 -18.98682,18.84864 -18.94819,31.94187l0,110.36824c-0.07441,13.06041 7.05905,25.19446 18.7781,31.94187l97.42864,55.18409c11.53693,6.52258 25.88329,6.52258 37.42022,0l97.42864,-55.18409c11.71905,-6.74741 18.85251,-18.88146 18.7781,-31.94187l0,-110.36824c0.11034,-13.02772 -6.95421,-25.15441 -18.60801,-31.94187l0,0zm-75.45279,172.33674l0,7.92054c-0.01251,0.99014 -0.55092,1.90656 -1.42875,2.43465l-4.93271,2.69428c-0.78236,0.38959 -1.42875,0 -1.42875,-1.03881l0,-7.79066c-3.48638,1.63307 -7.4758,2.00223 -11.22607,1.03874c-0.60088,-0.38243 -0.82982,-1.11983 -0.54425,-1.75294l1.769,-7.17392c0.15091,-0.60467 0.49575,-1.1494 0.9865,-1.55814c0.14098,-0.13022 0.30148,-0.23961 0.4763,-0.32461c0.24972,-0.1029 0.53278,-0.1029 0.78243,0c3.4399,0.87896 7.10387,0.43613 10.20553,-1.23353c4.49011,-2.09439 7.41563,-6.36909 7.62012,-11.13416c0,-4.02521 -2.31325,-5.71318 -7.89228,-5.74566c-7.07587,0 -13.60735,-1.29844 -13.77744,-11.26405c0.16439,-8.6175 4.35684,-16.71374 11.43014,-22.07366l0,-8.01794c-0.00479,-1.00327 0.53591,-1.93719 1.42882,-2.467l4.76255,-2.88908c0.78243,-0.38959 1.42875,0 1.42875,1.07123l0,8.01794c2.91649,-1.26722 6.17268,-1.64149 9.32103,-1.07123c0.67918,0.3695 0.94599,1.17559 0.61234,1.85027l-1.66686,7.10901c-0.14133,0.54135 -0.43551,1.03536 -0.85045,1.42833c-0.13855,0.14169 -0.29926,0.26215 -0.4763,0.3571c-0.23179,0.07426 -0.48262,0.07426 -0.71441,0c-3.07067,-0.64246 -6.28253,-0.14328 -8.98085,1.39584c-4.01249,1.65647 -6.66266,5.37391 -6.80364,9.5436c0,3.63563 2.00705,4.73934 8.74266,4.86916c9.01489,0 12.89301,3.89533 12.99508,12.53007c-0.17086,9.0411 -4.50032,17.55298 -11.83842,23.27471l0,0l-0.00007,-0.00007zm51.02757,-13.34153c0.11965,0.68178 -0.16898,1.37038 -0.74839,1.78536l-24.62935,14.28294c-0.23603,0.19154 -0.57454,0.21608 -0.83816,0.061c-0.26361,-0.15541 -0.39222,-0.45516 -0.31836,-0.74237l0,-6.07027c0.03266,-0.66553 0.47241,-1.25051 1.12261,-1.49317l24.25506,-13.861c0.23603,-0.19154 0.57461,-0.21608 0.83823,-0.061c0.26361,0.15534 0.39222,0.45516 0.31836,0.74237l0,5.35614l0,0zm17.00917,-135.7205l-92.18979,54.34014c-11.49816,6.49228 -19.96874,13.6013 -19.96874,26.81301l0,108.3556c0,7.92054 3.40182,12.9845 8.50455,14.54264c-1.68312,0.30174 -3.39035,0.46471 -5.10273,0.48692c-5.41415,-0.01193 -10.72518,-1.41328 -15.37635,-4.05763l-97.42857,-55.18415c-9.62147,-5.56042 -15.48321,-15.52754 -15.44437,-26.26111l0,-110.36824c-0.05086,-10.74511 5.81241,-20.72715 15.44437,-26.2936l97.42857,-55.18409c9.4397,-5.33539 21.17688,-5.33539 30.61658,0l97.42864,55.18409c8.02922,4.63618 13.50618,12.41623 14.96808,21.26214c-3.16371,-6.55719 -10.44364,-8.37504 -18.91421,-3.63569l0.03405,0l-0.00007,0z"/>
 </g>
</svg>