<svg width="559" height="420" xmlns="http://www.w3.org/2000/svg">
 <g>
  <title>Layer 1</title>
  <g id="svg_23" stroke="null">
   <g transform="matrix(0.132619 0 0 -0.160237 -833.011 -810.006)" fill="#000000" id="svg_4" stroke="null">
    <path d="m6485.00732,-5135.5083l0,-65l-22,15c-12,9 -41,16 -64,16c-35,0 -47,-5 -68,-31c-22,-26 -26,-40 -26,-99c0,-59 4,-73 26,-99c21,-26 33,-31 68,-31c23,0 51,7 63,15c19,13 22,13 27,0c3,-8 15,-15 26,-15c19,0 20,6 20,180l0,180l-25,0c-24,0 -25,-2 -25,-66zm-24,-88c15,-12 19,-27 19,-76c0,-66 -16,-90 -60,-90c-44,0 -60,24 -60,90c0,66 16,90 60,90c12,0 30,-6 41,-14z" id="svg_5" stroke="null" fill="#848181"/>
    <path d="m6627.00732,-5078.5083c-21,-13 -10,-46 16,-49c27,-4 40,22 22,43c-14,17 -20,18 -38,6z" id="svg_6" stroke="null" fill="#848181"/>
    <path d="m6615.00732,-5318.5083c0,-82 -3,-156 -6,-165c-4,-10 -18,-16 -35,-16c-22,0 -29,-5 -29,-20c0,-17 7,-20 43,-20c73,0 77,10 77,203l0,167l-25,0l-25,0l0,-149z" id="svg_7" stroke="null" fill="#848181"/>
    <path d="m6782.00732,-5176.5083c-11,-3 -16,-10 -13,-20c3,-8 6,-16 6,-18c0,-2 23,-1 51,2c43,5 54,3 65,-12c24,-33 16,-42 -42,-48c-62,-6 -99,-26 -109,-57c-9,-27 1,-64 21,-84c20,-21 93,-21 122,0c20,14 23,14 28,0c3,-9 15,-16 25,-16c17,0 19,9 19,105c0,99 -2,107 -25,130c-20,21 -33,25 -77,24c-29,-1 -61,-3 -71,-6zm116,-159c-3,-36 -29,-56 -68,-52c-24,2 -31,8 -33,29c-4,30 12,46 53,52c45,6 50,3 48,-29z" id="svg_8" stroke="null" fill="#848181"/>
    <path d="m7025.00732,-5299.5083l0,-130l24,0c23,0 24,3 28,89c3,99 20,131 68,131c43,0 50,-16 50,-122l0,-98l31,0l31,0l-4,111c-3,102 -5,113 -27,130c-28,23 -98,25 -128,4c-19,-13 -22,-13 -27,0c-3,8 -15,15 -26,15c-19,0 -20,-6 -20,-130z" id="svg_9" stroke="null" fill="#848181"/>
    <path d="m7347.00732,-5192.5083c-28,-30 -30,-89 -3,-116c17,-17 18,-21 4,-32c-10,-9 -13,-22 -9,-42c5,-23 1,-33 -14,-44c-13,-9 -20,-25 -20,-48c0,-48 28,-65 108,-65c66,0 115,18 126,45c8,23 7,67 -2,82c-12,18 -59,33 -107,33c-73,0 -70,33 5,43c62,8 94,45 86,99c-6,33 -4,38 14,38c11,0 20,7 20,15c0,12 -17,15 -93,15c-85,0 -96,-2 -115,-23zm112,-29c9,-12 16,-28 16,-35c0,-17 -37,-53 -54,-53c-38,0 -62,70 -34,98c19,19 55,14 72,-10zm35,-222c37,-45 -72,-89 -127,-50c-26,18 -27,27 -6,48c20,20 117,22 133,2z" id="svg_10" stroke="null" fill="#848181"/>
    <path d="m7639.00732,-5187.5083c-32,-26 -44,-55 -44,-111c0,-92 37,-131 123,-131c57,0 93,28 107,82c16,56 3,116 -30,150c-24,24 -37,28 -82,28c-35,0 -60,-6 -74,-18zm120,-44c9,-12 16,-43 16,-68c0,-57 -22,-90 -59,-90c-50,0 -66,21 -66,90c0,49 4,64 19,76c30,21 72,18 90,-8z" id="svg_11" stroke="null" fill="#848181"/>
    <path d="m8809.00732,-5683.5083c-135,-27 -253,-119 -291,-228c-27,-80 -24,-205 9,-285l26,-63l-414,0l-414,0l0,190l0,190l275,0l275,0l0,95l0,95l-385,0l-385,0l0,-605l0,-606l-157,3l-158,3l-58,85c-57,84 -192,305 -202,331c-3,9 12,23 42,39c76,40 147,112 179,182c26,57 29,73 28,168c0,135 -24,201 -98,276c-98,98 -216,124 -557,124l-239,0l0,-700l0,-700l110,0l110,0l0,285l0,286l112,-3l111,-3l128,-208c198,-324 240,-381 315,-427l33,-21l90,46l91,45l445,0l445,0l0,100l0,100l-275,0l-275,0l0,220l0,220l551,0l551,0l104,-50c63,-30 120,-66 144,-90c92,-92 69,-233 -47,-291c-91,-45 -282,-32 -454,31c-46,16 -84,30 -86,30c-2,0 -3,-47 -3,-104l0,-104l39,-15c98,-40 165,-51 316,-51c164,-1 210,7 308,56c147,73 220,221 196,398c-13,88 -40,140 -108,202c-60,55 -81,67 -292,166c-145,68 -204,115 -220,175c-24,88 11,171 88,208c81,39 249,26 395,-32c28,-11 51,-18 52,-17c1,2 7,15 14,31l12,27l290,0l290,0l0,-605l0,-605l110,0l110,0l0,605l0,605l200,0l200,0l0,95l0,94l-722,5c-398,3 -761,7 -808,10c-48,3 -111,-1 -146,-8zm949,-32l697,-5l0,-64l0,-65l-200,0l-200,0l0,-605l0,-605l-80,0l-80,0l0,605l0,605l-315,0l-315,0l-10,-25c-5,-14 -12,-25 -14,-25c-3,0 -40,12 -83,27c-67,22 -95,26 -203,27c-116,1 -128,-1 -168,-24c-63,-36 -97,-98 -96,-175c0,-34 8,-73 17,-91c22,-43 85,-97 148,-127c30,-14 111,-52 181,-85c216,-102 281,-185 282,-357c0,-76 -4,-99 -26,-146c-29,-63 -78,-116 -141,-153c-131,-77 -392,-88 -584,-25l-63,21l0,75c0,67 2,75 18,70c197,-65 325,-85 428,-68c92,17 139,43 175,98c24,40 29,57 29,112c0,116 -50,170 -236,257l-94,44l-565,0l-565,0l0,-250l0,-250l275,0l275,0l0,-70l0,-70l-431,0l-432,0l-89,-46l-90,-45l-34,26c-57,44 -101,104 -254,351c-82,132 -154,247 -162,257c-11,16 -33,19 -145,24l-133,6l0,-286l0,-287l-80,0l-80,0l0,671l0,671l262,-5c275,-5 317,-10 405,-56c65,-33 110,-77 140,-139c25,-52 28,-67 28,-167c0,-94 -3,-117 -24,-163c-29,-64 -105,-136 -184,-175c-31,-15 -57,-30 -57,-33c0,-12 118,-208 202,-336l91,-138l179,0l178,0l0,605l0,605l355,0l355,0l0,-65l0,-65l-275,0l-275,0l0,-220l0,-220l455,0c250,0 455,2 455,5c0,3 -11,22 -24,43c-62,95 -72,251 -23,348c68,133 204,197 397,188c58,-2 419,-7 803,-10z" id="svg_12" stroke="null" fill="#848181"/>
    <path d="m6475.00732,-6109.5083l0,-263l148,6c165,7 198,14 263,56c66,41 99,111 99,205c0,85 -21,138 -73,183c-54,48 -121,64 -289,70l-148,6l0,-263zm343,209c53,-18 113,-73 128,-116c18,-55 7,-173 -20,-217c-46,-74 -144,-106 -323,-106l-98,0l0,231l0,232l138,-6c75,-3 154,-11 175,-18z" id="svg_13" stroke="null" fill="#848181"/>
    <path d="m8014.00732,-7270.5083c-27,-10 -49,-46 -49,-80c0,-12 -8,-23 -20,-26c-11,-3 -20,-12 -20,-19c0,-8 9,-14 20,-14c19,0 20,-7 20,-110l0,-110l30,0l30,0l0,110l0,110l30,0c23,0 30,4 30,20c0,16 -7,20 -31,20c-27,0 -30,3 -27,28c2,22 9,28 38,32c41,6 53,34 18,44c-29,7 -37,7 -69,-5z" id="svg_14" stroke="null" fill="#848181"/>
    <path d="m10245.00732,-7449.5083l0,-180l25,0c23,0 25,4 25,44c0,28 6,48 16,57c15,12 20,9 43,-21c57,-74 66,-82 93,-78l27,3l-53,70l-53,70l49,57l50,58l-30,0c-24,0 -41,-12 -86,-62l-56,-61l0,111l0,112l-25,0l-25,0l0,-180z" id="svg_15" stroke="null" fill="#848181"/>
    <path d="m8135.00732,-7499.5083l0,-130l24,0c23,0 24,3 27,85c4,94 22,126 73,128c14,1 26,5 26,9c0,3 3,13 6,22c10,25 -54,21 -82,-5l-22,-21l-7,21c-3,12 -15,21 -26,21c-18,0 -19,-8 -19,-130z" id="svg_16" stroke="null" fill="#848181"/>
    <path d="m8372.00732,-7376.5083c-11,-3 -16,-10 -13,-20c3,-8 6,-16 6,-18c0,-2 23,-1 51,2c43,5 54,3 65,-12c24,-33 16,-42 -42,-48c-62,-6 -99,-26 -109,-57c-9,-27 1,-64 21,-84c20,-21 93,-21 122,0c20,14 23,14 28,0c3,-9 15,-16 25,-16c17,0 19,9 19,105c0,99 -2,107 -25,130c-20,21 -33,25 -77,24c-29,-1 -61,-3 -71,-6zm116,-159c-3,-36 -29,-56 -68,-52c-24,2 -31,8 -33,29c-4,30 12,46 53,52c45,6 50,3 48,-29z" id="svg_17" stroke="null" fill="#848181"/>
    <path d="m8615.00732,-7499.5083l0,-130l25,0c24,0 25,2 25,74c0,93 14,134 48,143c48,12 57,-5 60,-116l3,-101l29,0l30,0l0,93c0,104 12,127 63,127c38,0 47,-26 47,-129c0,-90 0,-91 25,-91l25,0l0,108c0,95 -2,111 -20,130c-25,27 -94,30 -128,6c-21,-15 -25,-15 -41,0c-22,20 -90,21 -118,1c-19,-13 -22,-13 -27,0c-3,8 -15,15 -26,15c-19,0 -20,-6 -20,-130z" id="svg_18" stroke="null" fill="#848181"/>
    <path d="m9109.00732,-7387.5083c-32,-26 -44,-55 -44,-111c0,-94 37,-131 129,-131c62,0 81,7 81,30c0,16 -7,18 -57,13c-66,-5 -88,6 -99,49l-6,28l86,0l86,0l0,41c0,61 -42,99 -107,99c-30,0 -56,-7 -69,-18zm110,-38c32,-32 20,-44 -44,-44c-33,0 -60,3 -60,8c0,4 7,18 16,30c18,26 65,30 88,6z" id="svg_19" stroke="null" fill="#848181"/>
    <path d="m9330.00732,-7400.5083c4,-16 19,-74 34,-127c27,-94 29,-97 58,-100l30,-3l30,106l29,107l29,-107l28,-106l31,3c30,3 31,5 67,131l37,127l-28,0c-28,0 -29,-3 -53,-102l-25,-103l-12,45c-46,172 -41,161 -74,158c-30,-3 -32,-6 -57,-98c-27,-96 -30,-97 -48,-25c-31,125 -31,125 -57,125c-23,0 -25,-3 -19,-31z" id="svg_20" stroke="null" fill="#848181"/>
    <path d="m9779.00732,-7387.5083c-32,-26 -44,-55 -44,-111c0,-92 37,-131 123,-131c57,0 93,28 107,82c16,56 3,116 -30,150c-24,24 -37,28 -82,28c-35,0 -60,-6 -74,-18zm120,-44c9,-12 16,-43 16,-68c0,-57 -22,-90 -59,-90c-50,0 -66,21 -66,90c0,49 4,64 19,76c30,21 72,18 90,-8z" id="svg_21" stroke="null" fill="#848181"/>
    <path d="m10035.00732,-7499.5083l0,-130l24,0c23,0 24,3 27,85c4,94 22,126 73,128c14,1 26,5 26,9c0,3 3,13 6,22c10,25 -54,21 -82,-5l-22,-21l-7,21c-3,12 -15,21 -26,21c-18,0 -19,-8 -19,-130z" id="svg_22" stroke="null" fill="#848181"/>
   </g>
  </g>
 </g>

</svg>