<svg width="800" height="550" xmlns="http://www.w3.org/2000/svg">
 <g stroke="null">
  <title>Layer 1</title>
  <path d="m249.00579,391.75304l0,-169.13032l9.43841,0l0,26.60436a35.79046,34.78749 0 0 0 3.0807,-3.7503c7.88296,-15.89656 24.50967,-25.92916 42.66162,-25.731c21.51958,-0.62383 39.00707,7.11896 49.28361,25.731a85.09673,82.71203 0 0 1 2.0538,75.82058c-9.57433,20.85782 -33.22321,31.22801 -58.54081,27.419a47.34308,46.01637 0 0 1 -37.78385,-24.23382l0,67.26316l-10.19349,0.00734l0.00001,0zm9.43841,-109.30171l2.1142,19.85969c3.73006,22.60453 17.47994,35.96175 39.06748,38.47174a44.39829,43.1541 0 0 0 48.77016,-27.419c8.39641,-19.4487 7.77725,-41.4661 -1.66116,-60.45978a43.4922,42.27341 0 0 0 -45.81783,-24.60811a42.35959,41.17254 0 0 0 -37.84426,30.41337a216.10189,210.04599 0 0 0 -4.6286,23.73476l0,0.00734l0.00001,-0.00001zm293.44699,42.30188a50.89192,49.46576 0 0 1 -44.94492,24.40351c-39.58093,1.93753 -58.15572,-23.60999 -61.10806,-53.09129a87.51296,85.06055 0 0 1 7.7093,-46.84569a53.7612,52.25463 0 0 1 55.96601,-29.16572a51.42047,49.9795 0 0 1 45.62151,38.03873a264.04902,256.64949 0 0 1 4.43228,28.10888l-103.9509,0c-1.92544,26.72912 12.85134,48.2181 33.79707,53.39953c26.08777,6.23826 48.38508,-4.74842 56.47946,-28.85747c1.79707,-6.18689 5.07409,-7.06025 10.85795,-5.30619l-4.85969,19.31571l-0.00001,0zm-96.35029,-47.10901l92.97969,0c-0.58141,-28.47584 -18.82397,-49.17219 -43.56771,-49.40704c-27.9377,-0.44035 -48.19631,19.42669 -49.41198,49.40704zm120.35863,28.41712l9.11373,0a36.54553,35.5214 0 0 0 21.45917,30.60419a56.10192,54.52976 0 0 0 48.70976,-1.24765a21.89712,21.28349 0 0 0 12.85134,-20.92387a19.85842,19.30192 0 0 0 -13.36479,-19.30192c-10.02737,-3.62553 -20.689,-5.62178 -30.90514,-8.80696a226.5219,220.174 0 0 1 -31.10146,-11.05273c-16.46059,-7.80884 -17.47994,-38.22221 1.15526,-47.85115a65.61584,63.77707 0 0 1 62.71636,-0.93941c12.03586,6.45844 18.68806,19.50008 16.70977,32.73253l-7.81501,0c0,-0.36696 -0.70977,-0.68988 -0.70977,-1.06417c-0.96649,-24.21914 -21.91222,-31.79312 -44.39829,-29.66478c-6.79566,0.73391 -13.23643,2.73016 -19.27701,5.68049a19.25436,18.71479 0 0 0 -11.17508,18.73681a19.25436,18.71479 0 0 0 12.85134,17.61392c9.81595,3.50077 20.23596,5.74654 30.39169,8.49138l24.53987,6.23826a28.9948,28.18227 0 0 1 19.91883,25.42276c1.96319,12.80679 -4.75696,25.3934 -16.64181,31.22801c-21.45917,11.80133 -56.80414,8.68219 -72.54741,-6.23826c-8.05663,-7.87489 -12.54931,-18.56801 -12.4587,-29.66478l-0.02265,0.00734l0,-0.00001zm217.31,-46.77963l-8.54743,0c0,-1.12289 -0.45304,-2.20174 -0.58141,-3.06042a27.9377,27.15479 0 0 0 -22.75035,-26.1053a56.10192,54.52976 0 0 0 -36.04718,1.688a21.89712,21.28349 0 0 0 -15.87163,20.30004a20.16045,19.59549 0 0 0 15.41859,19.73493l39.06748,9.74637a108.655,105.61013 0 0 1 12.4587,3.68424c12.4587,4.40348 20.91552,15.64703 21.29306,28.49785a32.0906,31.19132 0 0 1 -19.6319,29.6501a71.50541,69.50159 0 0 1 -57.83104,0.56511a40.09438,38.9708 0 0 1 -24.16234,-37.84791l8.35111,0c3.1411,14.71496 13.53846,26.97131 27.80179,32.76923s30.55025,4.37412 43.52241,-3.78699a22.95422,22.31096 0 0 0 12.33789,-20.85782a19.85842,19.30192 0 0 0 -13.56111,-19.17716c-10.02737,-3.62553 -20.689,-5.55572 -30.90514,-8.80696a227.6545,221.27487 0 0 1 -31.29022,-10.92797c-16.06795,-7.68407 -17.35158,-37.84791 0.96649,-47.46951a64.70975,62.89637 0 0 1 63.74326,-0.68988a33.60075,32.65914 0 0 1 16.12836,32.04266l0.09061,0.05137l0,0.00002zm-559.7356,86.82195a14.72392,14.31131 0 0 1 -18.25011,-6.74466l-33.22321,-44.65863l-4.81737,-6.23826l-38.55403,50.96294a14.11986,13.72418 0 0 1 -17.35158,6.6199l49.6687,-64.76785l-46.21047,-58.52225c6.85606,-2.40724 14.4974,0.2055 18.31052,6.23826l34.43133,45.20906l34.6352,-45.03292a13.81784,13.43061 0 0 1 17.22321,-6.2456l-17.93298,23.12561l-24.2907,30.72895a6.41812,6.23826 0 0 0 0,9.30602l46.26332,60.01943l0.09816,0l0.00001,0zm210.89188,-123.97264l0,8.80696a46.588,45.28245 0 0 0 -49.6083,46.77963q0,30.85372 0,61.70743l0,6.99419l-9.18924,0l0,-123.73779l9.06088,0l0,25.35671c11.11467,-18.49462 28.26993,-25.35671 49.79706,-25.85577l-0.06041,-0.05137l0.00001,0.00001zm-442.01972,58.33877l4.04719,-19.42669c11.11467,-38.41302 56.41905,-54.39766 87.58847,-30.60419c18.25011,13.92967 22.8032,33.6646 21.91222,55.90218l-102.81829,0c-1.66116,39.71939 27.82444,63.70368 65.54033,51.462c12.4285,-4.40348 21.78386,-14.44341 24.86455,-26.91994c1.99339,-6.23826 5.28551,-7.30978 11.31099,-5.50435a52.17554,50.71341 0 0 1 -24.93251,37.04061a60.40584,58.71307 0 0 1 -70.36525,-8.74091c-9.18169,-10.0326 -14.72392,-22.71462 -15.80368,-36.10854c0,-2.20174 -0.75507,-4.2567 -1.28362,-6.23826q-0.07551,-5.55572 -0.07551,-10.86192l0.0151,0l0.00001,0.00001zm10.85795,-2.68612l92.97969,0c-0.58141,-28.79142 -19.27701,-49.21623 -44.20952,-49.40704c-27.75648,-0.36696 -47.6149,19.61016 -48.83812,49.28228l0.06796,0.12477l-0.00001,-0.00001z" id="svg_1" fill="#7f7f7f" stroke="null"/>
 </g>

</svg>