<svg width="700" height="600" xmlns="http://www.w3.org/2000/svg">

 <g>
  <title>Layer 1</title>
  <g stroke="null" id="svg_83">
   <g stroke="null" id="freepik--background-complete--inject-3">
    <polygon stroke="null" id="svg_3" fill="#ebebeb" points="101.70247238163171,167.50441749449908 104.62947531455535,172.932144251988 111.17011210257402,173.81188527783468 106.43627325068479,178.04449124964538 107.55648584404622,184.01996776474095 101.70247238163171,181.19822514131317 95.86648557325276,184.01996776474095 96.98670576318142,178.04449124964538 92.25288210442665,173.81188527783468 98.79351129587809,172.932144251988 101.70247238163171,167.50441749449908 "/>
    <polygon stroke="null" id="svg_4" fill="#f5f5f5" points="686.4739264615487,423.5034816841993 689.4009749738757,428.9478199500967 695.9414978133859,429.8275769026053 691.207803296274,434.0435554393456 692.327901941127,440.03564346284963 686.4739264615487,437.213853059436 680.6379396531697,440.03564346284963 681.7581598430984,434.0435554393456 677.0243437809108,429.8275769026053 683.5649881654967,428.9478199500967 686.4739264615487,423.5034816841993 "/>
    <polygon stroke="null" id="svg_5" fill="#f5f5f5" points="570.6578779315892,581.33889943683 573.5849264439162,586.7666421209809 580.1075213847648,587.6463035135179 575.3736445500394,591.8789731919763 576.4938647399681,597.8544656337339 570.6578779315892,595.0327070836441 564.821951895748,597.8544656337339 565.9241226419394,591.8789731919763 561.2083560234892,587.6463035135179 567.7309509643378,586.7666421209809 570.6578779315892,581.33889943683 "/>
    <path stroke="null" id="svg_6" fill="#ebebeb" d="m305.67234,71.06697l1.08408,2.02502l2.43918,0.33197a0.72272,0.66394 0 0 1 0.3975,1.1453l-1.8068,1.57686l0.41556,2.2242a0.74079,0.68054 0 0 1 -1.06601,0.71374l-2.16816,-1.06231l-2.16816,1.06231a0.74079,0.68054 0 0 1 -1.06601,-0.71374l0.3975,-2.2242l-1.8068,-1.57686a0.72272,0.66394 0 0 1 0.41556,-1.1453l2.42111,-0.33197l1.08408,-2.02502a0.74079,0.68054 0 0 1 1.42737,0z"/>
    <path stroke="null" id="svg_7" fill="#f5f5f5" d="m7.26091,555.495l1.08408,2.00842l2.42111,0.33197a0.74079,0.68054 0 0 1 0.41556,1.1619l-1.8068,1.56026l0.41556,2.2242a0.74079,0.68054 0 0 1 -1.06601,0.71374l-2.16816,-1.04571l-2.16816,1.04571a0.74079,0.68054 0 0 1 -1.06601,-0.71374l0.41556,-2.2242l-1.8068,-1.56026a0.74079,0.68054 0 0 1 0.3975,-1.1619l2.42111,-0.33197l1.10215,-2.00842a0.74079,0.68054 0 0 1 1.40931,0z"/>
    <path stroke="null" id="svg_8" fill="#ebebeb" d="m55.99036,49.73786l1.08408,2.02502l2.43918,0.31537a0.74079,0.68054 0 0 1 0.3975,1.1619l-1.8068,1.65985l0.41556,2.2076a0.72272,0.66394 0 0 1 -1.06601,0.71374l-2.16816,-1.04571l-2.16816,1.04571a0.72272,0.66394 0 0 1 -1.06601,-0.71374l0.3975,-2.2076l-1.8068,-1.65985a0.74079,0.68054 0 0 1 0.41556,-1.1619l2.42111,-0.31537l1.15635,-2.02502a0.74079,0.68054 0 0 1 1.3551,0z"/>
    <path stroke="null" id="svg_9" fill="#ebebeb" d="m53.06334,449.79558a2.40305,2.2076 0 1 1 -2.40305,-2.19101a2.40305,2.2076 0 0 1 2.40305,2.19101z"/>
    <path stroke="null" id="svg_10" fill="#ebebeb" d="m395.5246,173.54628a2.40305,2.2076 0 1 1 -2.40305,-2.19101a2.38498,2.19101 0 0 1 2.40305,2.19101z"/>
    <path stroke="null" id="svg_11" fill="#f5f5f5" d="m270.92753,51.5637a2.40305,2.2076 0 1 1 -2.40305,-2.2076a2.42111,2.2242 0 0 1 2.40305,2.2076z"/>
    <circle stroke="null" transform="matrix(1.75849 -0.381285 0.415041 1.61547 -132.977 -142.357)" id="svg_12" fill="#f0f0f0" r="7.35" cy="473.66652" cx="118.3227"/>
    <path stroke="null" id="svg_13" fill="#e6e6e6" d="m267.11518,570.58307a12.81023,11.76836 0 0 0 -7.5705,2.2574a13.26193,12.18332 0 0 0 18.97142,15.32044s0,0 0,0a12.95477,11.90114 0 0 0 -11.40092,-17.56124l0,-0.0166z"/>
   </g>
   <g stroke="null" id="freepik--404--inject-3">
    <path stroke="null" id="svg_14" fill="#407BFF" d="m164.27201,366.7808l-109.9439,0l0,-45.59616l109.9439,-120.07375l52.61408,0l0,122.66312l27.26464,0l0,43.00679l-27.26464,0l0,37.31349l-52.61408,0l0,-37.31349zm0,-43.00679l0,-62.80883l-58.10675,62.80883l58.10675,0z"/>
    <path stroke="null" id="svg_15" fill="#407BFF" d="m262.95954,303.49061q0,-56.91635 22.29594,-79.67293t67.95382,-22.73998q21.91651,0 36.00956,4.97956a66.47225,61.06598 0 0 1 22.96445,12.93025a75.1449,69.03328 0 0 1 14.00272,16.74791a94.64029,86.94309 0 0 1 8.22095,20.48258a208.43268,191.48062 0 0 1 6.07085,46.47588q0,54.31038 -20.0013,79.49035t-68.89336,25.19657q-27.42725,0 -44.32085,-8.03369a71.83845,65.99575 0 0 1 -27.69828,-23.55331q-7.85959,-11.02142 -12.23205,-30.15953a224.6397,206.3695 0 0 1 -4.37246,-42.14366zm59.87742,0.13279q0,38.17661 7.31755,52.06958t21.26606,13.95936a22.29594,20.48258 0 0 0 15.93599,-5.92567q6.75744,-5.92567 9.93741,-18.72314t3.17997,-39.83647q0,-39.73688 -7.33562,-53.43066t-22.00685,-13.67719q-14.96032,0 -21.68162,13.95936t-6.6129,51.60482z"/>
    <path stroke="null" id="svg_16" fill="#407BFF" d="m569.10407,366.7808l-109.9439,0l0,-45.59616l109.9439,-120.07375l52.61408,0l0,122.66312l27.35498,0l0,43.00679l-27.35498,0l0,37.31349l-52.61408,0l0,-37.31349zm0,-43.00679l0,-62.80883l-58.08869,62.80883l58.08869,0z"/>
   </g>
   <g stroke="null" id="freepik--Planets--inject-3">
    <g stroke="null" id="svg_17" opacity="0.3">
     <path stroke="null" id="svg_18" fill="#407BFF" d="m260.61069,131.0485a3.37872,3.10392 0 1 1 -3.36065,-3.10392a3.36065,3.08733 0 0 1 3.36065,3.10392z"/>
     <circle stroke="null" id="svg_19" fill="#407BFF" r="1.86671" cy="248.08472" cx="29.28583"/>
     <circle stroke="null" id="svg_20" fill="#407BFF" r="2.67279" cy="567.10843" cx="423.31322"/>
     <circle stroke="null" id="svg_21" fill="#407BFF" r="1.86669" cy="440.41187" cx="505.43237"/>
     <path stroke="null" id="svg_22" fill="#407BFF" d="m663.83471,48.05586a2.38498,2.19101 0 1 1 -2.38498,-2.19101a2.38498,2.19101 0 0 1 2.38498,2.19101z"/>
     <path stroke="null" id="svg_23" fill="#407BFF" d="m209.56854,3.87058a2.38498,2.19101 0 1 1 -2.38498,-2.19101a2.40305,2.2076 0 0 1 2.38498,2.19101z"/>
     <circle stroke="null" id="svg_24" fill="#407BFF" r="1.8667" cy="116.64098" cx="399.19241"/>
    </g>
    <circle stroke="null" id="svg_25" fill="#407BFF" r="30.98445" cy="82.48121" cx="152.61814"/>
    <circle stroke="null" id="svg_26" fill="#fff" opacity="0.7" r="30.98445" cy="82.48121" cx="152.61814"/>
    <path stroke="null" id="svg_27" fill="#407BFF" opacity="0.2" d="m138.97678,55.04384a39.46056,36.25119 0 0 0 -15.68304,2.93794a39.6051,36.38397 0 0 0 44.93517,57.91226l0,0a39.6051,36.38397 0 0 0 -29.3244,-60.83361l0.07227,-0.0166z"/>
    <path stroke="null" id="svg_28" fill="#407BFF" opacity="0.2" d="m135.03795,64.65439a3.6136,3.31971 0 1 1 -3.6136,-3.31971a3.6136,3.31971 0 0 1 3.6136,3.31971z"/>
    <path stroke="null" id="svg_29" fill="#407BFF" opacity="0.2" d="m177.60621,61.33469a3.6136,3.31971 0 1 1 -3.6136,-3.31971a3.6136,3.31971 0 0 1 3.6136,3.31971z"/>
    <path stroke="null" id="svg_30" fill="#407BFF" opacity="0.2" d="m170.379,85.03738a5.92631,5.44432 0 1 1 -5.92631,-5.44432a5.92631,5.44432 0 0 1 5.92631,5.44432z"/>
    <path stroke="null" id="svg_31" fill="#407BFF" opacity="0.2" d="m151.55212,100.55701a7.91379,7.27016 0 1 1 -7.91379,-7.27016a7.91379,7.27016 0 0 1 7.91379,7.27016z"/>
    <circle stroke="null" id="svg_32" transform="matrix(0.41504 -1.61547 1.75849 0.381285 -1368.21 619.481)" fill="#407BFF" r="19.23" cy="1039.10273" cx="310.65318"/>
    <circle stroke="null" id="svg_33" transform="matrix(0.41504 -1.61547 1.75849 0.381285 -1368.21 619.481)" fill="#fff" opacity="0.3" r="19.23" cy="1039.10273" cx="310.65318"/>
    <path stroke="null" id="svg_34" fill="#407BFF" opacity="0.4" d="m609.91973,489.11195a34.72674,31.90237 0 0 0 -31.92619,55.3063a34.32924,31.5372 0 0 0 9.99162,1.36108a34.7448,31.91897 0 0 0 21.93458,-56.66737z"/>
    <path stroke="null" id="svg_35" fill="#407BFF" d="m554.81227,523.40451c-37.09365,16.03418 -9.43151,28.40008 42.83928,11.13761c48.40423,-15.98438 66.85168,-36.135 23.48843,-29.87735c2.33077,8.38226 -58.28743,30.07653 -66.3277,18.73974z"/>
   </g>
   <g stroke="null" id="freepik--Astronaut--inject-3">
    <path stroke="null" id="svg_36" opacity="0.2" d="m609.50417,201.11089c-48.58491,30.15953 -111.47969,69.99599 -128.84305,165.66991l-3.70394,0c16.8936,-94.61161 77.49374,-135.39419 126.09671,-165.66991l6.45028,0z"/>
    <path stroke="null" id="svg_37" fill="#407BFF" d="m358.178,500.61473c-30.71563,0 -61.08798,-12.73107 -75.88569,-33.51243c-9.12435,-12.84726 -19.73028,-39.75347 11.85262,-75.65609l2.80054,2.09141c-22.33207,25.39575 -26.45158,50.87449 -11.61774,71.75544c18.06802,25.39575 60.69048,38.17661 97.07947,29.08062c37.27433,-9.31177 59.89549,-39.08953 62.08172,-81.69795c7.46209,-145.75167 91.74941,-190.65069 153.28909,-223.43279c38.25,-20.36639 65.876,-35.07269 59.80515,-66.12854c-0.8492,-4.29902 -2.7102,-7.27016 -5.72756,-9.09599c-7.85959,-4.76378 -23.21741,-1.46067 -40.99634,2.34039c-34.88935,7.46934 -82.66119,17.69403 -111.11833,-26.77343l3.12577,-1.65985c27.10203,42.37604 71.49516,32.86509 107.1795,25.22976c18.59199,-3.96705 34.6364,-7.40294 43.79688,-1.87563c3.88462,2.34039 6.2696,6.04186 7.22721,11.287c6.52256,33.32984 -23.48843,49.33083 -61.52161,69.58103c-60.83502,32.40033 -144.1286,76.76819 -151.50035,220.76042c-2.27657,44.15208 -25.87341,75.04194 -64.75579,84.75208a95.54369,87.77302 0 0 1 -25.11455,2.95454z"/>
    <path stroke="null" id="svg_38" fill="#fff" opacity="0.2" d="m358.178,500.61473c-30.71563,0 -61.08798,-12.73107 -75.88569,-33.51243c-9.12435,-12.84726 -19.73028,-39.75347 11.85262,-75.65609l2.80054,2.09141c-22.33207,25.39575 -26.45158,50.87449 -11.61774,71.75544c18.06802,25.39575 60.69048,38.17661 97.07947,29.08062c37.27433,-9.31177 59.89549,-39.08953 62.08172,-81.69795c7.46209,-145.75167 91.74941,-190.65069 153.28909,-223.43279c38.25,-20.36639 65.876,-35.07269 59.80515,-66.12854c-0.8492,-4.29902 -2.7102,-7.27016 -5.72756,-9.09599c-7.85959,-4.76378 -23.21741,-1.46067 -40.99634,2.34039c-34.88935,7.46934 -82.66119,17.69403 -111.11833,-26.77343l3.12577,-1.65985c27.10203,42.37604 71.49516,32.86509 107.1795,25.22976c18.59199,-3.96705 34.6364,-7.40294 43.79688,-1.87563c3.88462,2.34039 6.2696,6.04186 7.22721,11.287c6.52256,33.32984 -23.48843,49.33083 -61.52161,69.58103c-60.83502,32.40033 -144.1286,76.76819 -151.50035,220.76042c-2.27657,44.15208 -25.87341,75.04194 -64.75579,84.75208a95.54369,87.77302 0 0 1 -25.11455,2.95454z"/>
    <path stroke="null" id="svg_39" fill="#407BFF" d="m462.53889,50.34646a83.20323,76.43622 0 0 1 24.53637,3.53549s19.87482,31.15544 22.22367,38.2928c-0.83113,7.03778 -13.74976,18.57375 -13.74976,18.57375l-33.01027,-60.40204z"/>
    <path stroke="null" id="svg_40" fill="#fff" opacity="0.3" d="m462.53889,50.34646a83.20323,76.43622 0 0 1 24.53637,3.53549s19.87482,31.15544 22.22367,38.2928c-0.83113,7.03778 -13.74976,18.57375 -13.74976,18.57375l-33.01027,-60.40204z"/>
    <path stroke="null" id="svg_41" fill="#407BFF" d="m521.4045,201.60885a255.49988,234.71978 0 0 1 -20.88663,-27.18839q-2.27657,-3.60188 -4.31826,-7.33655c-0.77692,-1.41087 -1.51771,-2.82175 -2.24043,-4.24922a19.44119,17.86002 0 0 1 -2.18623,-4.465c-2.16816,-21.03033 5.67336,-36.51676 -1.8068,-53.39746l-29.7761,10.68945s2.52952,30.07653 8.31129,48.13573c3.6136,11.17081 11.70808,20.83115 19.53153,29.77776c2.43918,2.78855 4.78803,5.6601 7.22721,8.46525s4.89643,5.07915 7.22721,7.71832c3.52326,4.00025 4.67962,7.83451 2.02362,12.54849l-0.4517,0.74693c-0.75886,1.22829 2.78248,2.62257 5.02291,0c3.6136,-4.28242 3.1077,-4.01684 6.25154,-7.66852c1.91521,-2.2076 4.10144,-4.61439 5.99858,-6.63941a6.08892,5.5937 0 0 0 0.07227,-7.13737z"/>
    <path stroke="null" id="svg_42" fill="#fff" opacity="0.7" d="m521.4045,201.60885a255.49988,234.71978 0 0 1 -20.88663,-27.18839q-2.27657,-3.60188 -4.31826,-7.33655c-0.77692,-1.41087 -1.51771,-2.82175 -2.24043,-4.24922a19.44119,17.86002 0 0 1 -2.18623,-4.465c-2.16816,-21.03033 5.67336,-36.51676 -1.8068,-53.39746l-29.7761,10.68945s2.52952,30.07653 8.31129,48.13573c3.6136,11.17081 11.70808,20.83115 19.53153,29.77776c2.43918,2.78855 4.78803,5.6601 7.22721,8.46525s4.89643,5.07915 7.22721,7.71832c3.52326,4.00025 4.67962,7.83451 2.02362,12.54849l-0.4517,0.74693c-0.75886,1.22829 2.78248,2.62257 5.02291,0c3.6136,-4.28242 3.1077,-4.01684 6.25154,-7.66852c1.91521,-2.2076 4.10144,-4.61439 5.99858,-6.63941a6.08892,5.5937 0 0 0 0.07227,-7.13737z"/>
    <path stroke="null" id="svg_43" fill="#407BFF" opacity="0.3" d="m514.12309,192.96101a98.814,90.77735 0 0 1 -15.64691,12.48209c0.77692,0.79673 1.53578,1.65985 2.31271,2.42339a79.35475,72.90073 0 0 0 15.35782,-12.46549l-2.02362,-2.43998z"/>
    <path stroke="null" id="svg_44" fill="#407BFF" opacity="0.3" d="m521.4045,201.60885l-0.21682,-0.23238a9.35923,8.59804 0 0 0 -2.29464,5.26173a9.03401,8.29926 0 0 0 0.68658,3.90065l1.71646,-1.87563a6.08892,5.5937 0 0 0 0.10841,-7.05437z"/>
    <path stroke="null" id="svg_45" fill="#407BFF" d="m455.45623,70.26469a63.92466,58.72559 0 0 1 -11.50933,11.93434a42.04428,38.62477 0 0 1 -7.98607,4.97956a34.32924,31.5372 0 0 1 -4.66155,1.80924l-1.22863,0.36517l-0.3975,0.09959l-0.8492,0.21578a10.71434,9.84293 0 0 1 -1.58999,0.23238a13.64136,12.53189 0 0 1 -4.53507,-0.38177a22.11526,20.3166 0 0 1 -5.312,-2.10801a45.17005,41.49632 0 0 1 -3.88462,-2.34039a72.83219,66.90867 0 0 1 -6.46835,-4.97956a96.0496,88.23777 0 0 1 -10.84081,-11.18741a4.53507,4.16623 0 0 1 6.05279,-6.00867l0.14454,0c4.26405,2.48978 8.56424,5.11235 12.75602,7.45274c2.13203,1.1453 4.19178,2.3072 6.23347,3.20352a27.626,25.37915 0 0 0 2.87282,1.19509a5.63722,5.17874 0 0 0 1.93328,0.43156c0.10841,0 0,-0.11619 -0.66852,-0.09959a5.29393,4.86337 0 0 0 -0.63238,0l-0.3975,0.08299l0,0l0.59624,-0.28217a24.44603,22.45781 0 0 0 2.33077,-1.31128a33.24516,30.54129 0 0 0 4.51701,-3.51889a114.94875,105.59983 0 0 0 8.85333,-9.61055l0,0a9.03401,8.29926 0 0 1 14.45442,9.84293l0.21682,-0.0166z"/>
    <path stroke="null" id="svg_46" fill="#fff" opacity="0.7" d="m455.45623,70.26469a63.92466,58.72559 0 0 1 -11.50933,11.93434a42.04428,38.62477 0 0 1 -7.98607,4.97956a34.32924,31.5372 0 0 1 -4.66155,1.80924l-1.22863,0.36517l-0.3975,0.09959l-0.8492,0.21578a10.71434,9.84293 0 0 1 -1.58999,0.23238a13.64136,12.53189 0 0 1 -4.53507,-0.38177a22.11526,20.3166 0 0 1 -5.312,-2.10801a45.17005,41.49632 0 0 1 -3.88462,-2.34039a72.83219,66.90867 0 0 1 -6.46835,-4.97956a96.0496,88.23777 0 0 1 -10.84081,-11.18741a4.53507,4.16623 0 0 1 6.05279,-6.00867l0.14454,0c4.26405,2.48978 8.56424,5.11235 12.75602,7.45274c2.13203,1.1453 4.19178,2.3072 6.23347,3.20352a27.626,25.37915 0 0 0 2.87282,1.19509a5.63722,5.17874 0 0 0 1.93328,0.43156c0.10841,0 0,-0.11619 -0.66852,-0.09959a5.29393,4.86337 0 0 0 -0.63238,0l-0.3975,0.08299l0,0l0.59624,-0.28217a24.44603,22.45781 0 0 0 2.33077,-1.31128a33.24516,30.54129 0 0 0 4.51701,-3.51889a114.94875,105.59983 0 0 0 8.85333,-9.61055l0,0a9.03401,8.29926 0 0 1 14.45442,9.84293l0.21682,-0.0166z"/>
    <path stroke="null" id="svg_47" fill="#407BFF" d="m389.41761,59.34286l2.11396,3.31971s1.60805,4.34881 4.84223,5.14554l8.78106,-2.60597l-0.4517,-0.68054l0,0c-1.12022,-1.56026 -0.99374,-4.59779 -0.61431,-7.12077s-1.02988,-2.60597 -2.07782,-1.97522a6.90198,6.34064 0 0 0 -1.51771,2.73876a14.03885,12.89706 0 0 0 -1.42737,-1.54366l-2.67407,-2.45658a3.1077,2.85495 0 0 0 -4.22792,-0.09959l-2.16816,1.77604a3.08963,2.83835 0 0 0 -0.57818,3.50229z"/>
    <path stroke="null" id="svg_48" fill="#fff" opacity="0.7" d="m389.41761,59.34286l2.11396,3.31971s1.60805,4.34881 4.84223,5.14554l8.78106,-2.60597l-0.4517,-0.68054l0,0c-1.12022,-1.56026 -0.99374,-4.59779 -0.61431,-7.12077s-1.02988,-2.60597 -2.07782,-1.97522a6.90198,6.34064 0 0 0 -1.51771,2.73876a14.03885,12.89706 0 0 0 -1.42737,-1.54366l-2.67407,-2.45658a3.1077,2.85495 0 0 0 -4.22792,-0.09959l-2.16816,1.77604a3.08963,2.83835 0 0 0 -0.57818,3.50229z"/>
    <path stroke="null" id="svg_49" fill="#407BFF" d="m471.41029,47.39192a107.75767,98.99362 0 0 0 -27.71634,10.73925a7.80538,7.17056 0 0 0 -3.5052,7.51913c3.48713,15.66901 11.41899,36.64955 19.98323,50.01136l39.94839,-15.18765c0.27102,-6.47343 -9.43151,-27.42077 -19.31471,-47.67097c-1.77067,-3.63508 -5.18552,-6.34064 -9.39537,-5.41112z"/>
    <path stroke="null" id="svg_50" fill="#fff" opacity="0.8" d="m471.41029,47.39192a107.75767,98.99362 0 0 0 -27.71634,10.73925a7.80538,7.17056 0 0 0 -3.5052,7.51913c3.48713,15.66901 11.41899,36.64955 19.98323,50.01136l39.94839,-15.18765c0.27102,-6.47343 -9.43151,-27.42077 -19.31471,-47.67097c-1.77067,-3.63508 -5.18552,-6.34064 -9.39537,-5.41112z"/>
    <path stroke="null" id="svg_51" fill="#407BFF" opacity="0.3" d="m487.00299,65.6337l-7.93186,-2.43998c1.8068,4.26582 8.18481,9.66034 12.64761,12.83066c-1.44544,-3.31971 -3.0535,-6.8054 -4.71575,-10.39068z"/>
    <path stroke="null" id="svg_52" fill="#407BFF" d="m468.79042,30.95938c-3.30645,-5.77629 -10.44332,-8.68103 -19.00756,-8.03369c-7.22721,0.56435 -13.62329,7.33655 -12.86443,10.98823s6.82971,5.21194 7.98607,6.47343l-5.00484,3.31971a5.42041,4.97956 0 0 0 -1.08408,7.12077c2.11396,2.45658 4.89643,4.97956 6.50449,6.83859c13.8401,-0.33197 24.08467,-5.17874 27.78862,-9.84293c-1.39124,-5.90908 -1.10215,-11.12101 -4.31826,-16.8641z"/>
    <path stroke="null" id="svg_53" fill="#fff" opacity="0.8" d="m468.79042,30.95938c-3.30645,-5.77629 -10.44332,-8.68103 -19.00756,-8.03369c-7.22721,0.56435 -13.62329,7.33655 -12.86443,10.98823s6.82971,5.21194 7.98607,6.47343l-5.00484,3.31971a5.42041,4.97956 0 0 0 -1.08408,7.12077c2.11396,2.45658 4.89643,4.97956 6.50449,6.83859c13.8401,-0.33197 24.08467,-5.17874 27.78862,-9.84293c-1.39124,-5.90908 -1.10215,-11.12101 -4.31826,-16.8641z"/>
    <path stroke="null" id="svg_54" fill="#263238" d="m461.99685,34.54466a13.67749,12.56509 0 1 1 -17.72473,-7.13737a13.69556,12.58168 0 0 1 17.72473,7.13737z"/>
    <path stroke="null" id="svg_55" fill="#407BFF" d="m579.31251,184.1306c-0.19875,-5.46092 -0.46977,-4.97956 -0.63238,-9.57735c-0.10841,-2.82175 -0.12648,-5.95887 -0.14454,-8.66443a6.07085,5.57711 0 0 0 -4.87837,-5.44432c-2.38498,-0.44816 -4.78803,-0.86312 -7.22721,-1.32788c-3.12577,-0.61415 -6.2154,-1.27809 -9.26889,-2.09141c-2.38498,-0.63074 -4.73382,-1.32788 -7.0646,-2.10801s-4.95064,-1.65985 -7.37175,-2.68896c-2.85475,-1.1121 -5.67336,-2.3072 -8.45583,-3.55208c-3.12577,-1.36108 -6.2154,-2.78855 -9.30503,-4.23262c-11.88876,-18.0758 -12.14171,-29.99354 -24.89773,-43.9695l-27.39112,11.38659s20.12777,32.79869 33.82333,46.70826c7.89572,8.00049 20.27232,11.61897 31.31188,14.24154c7.968,1.87563 16.0444,3.31971 24.12081,4.69738c3.14384,0.53115 6.55869,0.73034 9.26889,2.45658a10.37104,9.52756 0 0 1 3.86656,5.72649q0.18068,0.69714 0.32522,1.39428c0.34329,1.39428 4.04724,0.33197 3.92076,-2.95454z"/>
    <path stroke="null" id="svg_56" fill="#fff" opacity="0.8" d="m579.31251,184.1306c-0.19875,-5.46092 -0.46977,-4.97956 -0.63238,-9.57735c-0.10841,-2.82175 -0.12648,-5.95887 -0.14454,-8.66443a6.07085,5.57711 0 0 0 -4.87837,-5.44432c-2.38498,-0.44816 -4.78803,-0.86312 -7.22721,-1.32788c-3.12577,-0.61415 -6.2154,-1.27809 -9.26889,-2.09141c-2.38498,-0.63074 -4.73382,-1.32788 -7.0646,-2.10801s-4.95064,-1.65985 -7.37175,-2.68896c-2.85475,-1.1121 -5.67336,-2.3072 -8.45583,-3.55208c-3.12577,-1.36108 -6.2154,-2.78855 -9.30503,-4.23262c-11.88876,-18.0758 -12.14171,-29.99354 -24.89773,-43.9695l-27.39112,11.38659s20.12777,32.79869 33.82333,46.70826c7.89572,8.00049 20.27232,11.61897 31.31188,14.24154c7.968,1.87563 16.0444,3.31971 24.12081,4.69738c3.14384,0.53115 6.55869,0.73034 9.26889,2.45658a10.37104,9.52756 0 0 1 3.86656,5.72649q0.18068,0.69714 0.32522,1.39428c0.34329,1.39428 4.04724,0.33197 3.92076,-2.95454z"/>
    <path stroke="null" id="svg_57" fill="#407BFF" opacity="0.3" d="m565.4182,158.90083c-1.08408,-0.21578 -2.16816,-0.43156 -3.27031,-0.68054c0.09034,5.74309 -2.83668,15.63581 -3.90269,18.64015l3.43292,0.59755a68.85723,63.25699 0 0 0 3.74008,-18.55715z"/>
    <path stroke="null" id="svg_58" fill="#407BFF" opacity="0.3" d="m578.60785,165.88881a6.07085,5.57711 0 0 0 -4.8603,-5.44432l-1.8068,-0.31537a8.27515,7.60213 0 0 0 2.94509,4.81357a9.19662,8.44865 0 0 0 3.6136,1.89223c0.10841,-0.29877 0.10841,-0.63074 0.10841,-0.94612z"/>
    <path stroke="null" id="svg_59" fill="#fff" d="m459.44926,34.64425c0.72272,2.52298 -2.34884,5.16214 -4.78803,2.98774a55.70371,51.17326 0 0 0 -7.44402,-6.12486c-2.51145,-1.44407 0.83113,-3.96705 4.78803,-2.98774a10.7324,9.85953 0 0 1 7.44402,6.12486z"/>
    <path stroke="null" id="svg_60" fill="#407BFF" d="m459.64801,114.84834c-1.26476,0.43156 1.04795,2.42339 1.04795,2.42339s25.29523,-7.95069 40.65305,-16.13377a3.39679,3.12052 0 0 0 -1.22863,-2.62257a390.26924,358.5282 0 0 1 -40.47237,16.33295z"/>
    <path stroke="null" id="svg_61" fill="#fff" opacity="0.5" d="m459.64801,114.84834c-1.26476,0.43156 1.04795,2.42339 1.04795,2.42339s25.29523,-7.95069 40.65305,-16.13377a3.39679,3.12052 0 0 0 -1.22863,-2.62257a390.26924,358.5282 0 0 1 -40.47237,16.33295z"/>
    <path stroke="null" id="svg_62" fill="#407BFF" d="m478.25807,46.29642c4.98677,2.32379 9.66639,4.76378 14.45442,7.46934c2.33077,1.36108 4.64348,2.73876 6.93812,4.23262s4.57121,3.02093 6.86585,4.74718l0.8492,0.64734l1.06601,0.89632a23.01866,21.14652 0 0 1 1.8068,1.65985c0.57818,0.58095 1.06601,1.1453 1.53578,1.65985s0.97567,1.1287 1.39124,1.65985a79.13793,72.70155 0 0 1 4.66155,6.63941a106.69166,98.01431 0 0 1 7.22721,13.85977a4.55314,4.18283 0 0 1 -7.5705,4.34881l-0.09034,-0.09959c-3.6136,-3.53549 -7.10073,-7.25356 -10.60593,-10.72265s-7.0646,-6.98798 -10.00968,-8.53164c-4.10144,-2.34039 -8.67265,-4.68078 -13.20772,-6.97138l-13.65942,-6.97138l0,0a9.03401,8.29926 0 0 1 8.45583,-14.6731l-0.10841,0.14939z"/>
    <path stroke="null" id="svg_63" fill="#fff" opacity="0.8" d="m478.25807,46.29642c4.98677,2.32379 9.66639,4.76378 14.45442,7.46934c2.33077,1.36108 4.64348,2.73876 6.93812,4.23262s4.57121,3.02093 6.86585,4.74718l0.8492,0.64734l1.06601,0.89632a23.01866,21.14652 0 0 1 1.8068,1.65985c0.57818,0.58095 1.06601,1.1453 1.53578,1.65985s0.97567,1.1287 1.39124,1.65985a79.13793,72.70155 0 0 1 4.66155,6.63941a106.69166,98.01431 0 0 1 7.22721,13.85977a4.55314,4.18283 0 0 1 -7.5705,4.34881l-0.09034,-0.09959c-3.6136,-3.53549 -7.10073,-7.25356 -10.60593,-10.72265s-7.0646,-6.98798 -10.00968,-8.53164c-4.10144,-2.34039 -8.67265,-4.68078 -13.20772,-6.97138l-13.65942,-6.97138l0,0a9.03401,8.29926 0 0 1 8.45583,-14.6731l-0.10841,0.14939z"/>
    <path stroke="null" id="svg_64" fill="#407BFF" d="m529.33636,98.05063l-1.53578,-3.53549s-0.8492,-4.5148 -3.90269,-5.77629l-9.03401,1.31128l0.30716,0.73034l0,0c0.83113,1.65985 0.19875,4.69738 -0.61431,7.12077s0.56011,2.73876 1.71646,2.2574c0.65045,-0.26558 1.28283,-1.34448 1.96941,-2.48978a15.28555,14.04235 0 0 0 1.13829,1.65985l2.22237,2.80515a3.1077,2.85495 0 0 0 4.15564,0.73034l2.45725,-1.44407a3.07156,2.82175 0 0 0 1.12022,-3.3695z"/>
    <path stroke="null" id="svg_65" fill="#fff" opacity="0.8" d="m529.33636,98.05063l-1.53578,-3.53549s-0.8492,-4.5148 -3.90269,-5.77629l-9.03401,1.31128l0.30716,0.73034l0,0c0.83113,1.65985 0.19875,4.69738 -0.61431,7.12077s0.56011,2.73876 1.71646,2.2574c0.65045,-0.26558 1.28283,-1.34448 1.96941,-2.48978a15.28555,14.04235 0 0 0 1.13829,1.65985l2.22237,2.80515a3.1077,2.85495 0 0 0 4.15564,0.73034l2.45725,-1.44407a3.07156,2.82175 0 0 0 1.12022,-3.3695z"/>
    <path stroke="null" id="svg_66" fill="#407BFF" opacity="0.3" d="m470.63336,65.38473l-2.2043,0.16599l-13.53295,30.01014a7.22721,6.63941 0 0 0 2.2043,-0.16599s17.63439,-6.04186 22.96445,-8.29926c-3.57747,-6.7888 -9.43151,-21.71087 -9.43151,-21.71087z"/>
    <path stroke="null" id="svg_67" fill="#fff" d="m445.93438,73.25243a78.43328,72.05421 0 0 0 9.03401,22.30842c6.6129,-2.09141 17.63439,-6.04186 22.98252,-8.29926a244.56872,224.67767 0 0 1 -9.55798,-21.71087c-5.65529,0.34857 -18.06802,4.71398 -22.45855,7.70172z"/>
    <path stroke="null" id="svg_68" fill="#407BFF" opacity="0.3" d="m459.35892,79.74245a4.66155,4.28242 0 1 1 -3.12577,-5.32813a4.66155,4.28242 0 0 1 3.12577,5.32813z"/>
    <path stroke="null" id="svg_69" fill="#407BFF" opacity="0.6" d="m462.80991,74.03256a1.53578,1.41087 0 1 1 -1.01181,-1.65985a1.51771,1.39428 0 0 1 1.01181,1.65985z"/>
    <path stroke="null" id="svg_70" fill="#407BFF" opacity="0.6" d="m466.85715,72.58849a1.53578,1.41087 0 1 1 -2.92702,-0.81333a1.51771,1.39428 0 0 1 1.89714,-0.92952a1.53578,1.41087 0 0 1 1.02988,1.74285z"/>
    <polygon stroke="null" id="svg_71" fill="#407BFF" opacity="0.5" points="472.53055774055935,85.5187477644198 455.8176236553914,91.57720218824795 454.8238407304303,88.55627276720713 471.51872537186097,82.49780241671704 472.53055774055935,85.5187477644198 "/>
   </g>
   <g stroke="null" id="freepik--Rocket--inject-3">
    <path stroke="null" id="svg_72" opacity="0.2" d="m380.3294,316.20508a169.83939,156.02616 0 0 1 -3.03543,28.79845q-3.19804,12.79747 -9.93741,18.72314a22.22367,20.41619 0 0 1 -15.91793,5.92567q-13.93044,0 -21.26606,-13.95936a42.98382,39.4879 0 0 1 -2.18623,-5.16214a260.7396,239.53336 0 0 0 -28.76429,26.55764l-9.59412,10.39068a69.77869,64.10352 0 0 0 17.65246,11.93434q16.87553,8.01709 44.30279,8.03369c3.21611,0 6.32381,-0.08299 9.34117,-0.24898a259.07734,238.00629 0 0 0 27.28271,-48.13573l26.83101,-64.2695l-34.70867,21.4121z"/>
    <path stroke="null" id="svg_73" fill="#263238" d="m138.45281,403.89511l31.61904,29.04742l88.5333,-76.6354c-30.51689,-10.70605 -89.85227,19.68585 -120.15234,47.58798z"/>
    <path stroke="null" id="svg_74" fill="#263238" d="m248.72194,505.14613c-10.10002,-9.29518 -31.61904,-29.04742 -31.61904,-29.04742l83.42005,-81.33279c11.5816,27.96852 -21.50094,82.52788 -51.80101,110.38021z"/>
    <path stroke="null" id="svg_75" fill="#407BFF" d="m369.74154,322.06436l34.49185,-61.09918l-66.50838,31.71979a260.57699,239.38397 0 0 0 -58.61266,38.17661l-113.37683,98.0475l55.70371,51.17326l106.7278,-104.15576a260.57699,239.38397 0 0 0 41.57451,-53.86222z"/>
    <path stroke="null" id="svg_76" fill="#fff" opacity="0.6" d="m369.74154,322.06436l34.49185,-61.09918l-66.50838,31.71979a260.57699,239.38397 0 0 0 -58.61266,38.17661l-113.37683,98.0475l55.70371,51.17326l106.7278,-104.15576a260.57699,239.38397 0 0 0 41.57451,-53.86222z"/>
    <circle stroke="null" id="svg_77" fill="#fff" r="18.24279" cy="357.718" cx="298.9149"/>
    <circle stroke="null" id="svg_78" fill="#407BFF" r="11.72348" cy="357.718" cx="298.9149"/>
    <polygon stroke="null" id="svg_79" fill="#407BFF" opacity="0.3" points="240.28415667506084,461.691221269209 185.73682336613598,411.58020919246826 230.4009771300985,372.9720694387628 282.3103568891816,420.67621250907666 240.28415667506084,461.691221269209 "/>
    <path stroke="null" id="svg_80" fill="#407BFF" d="m150.79327,449.74024c-40.83373,3.03753 -54.36667,27.0556 -58.99209,58.97457c-2.34884,16.28316 -3.39679,32.76549 -18.26677,42.29305a5.00484,4.59779 0 0 0 2.94509,8.39886c54.81837,-1.57686 80.38462,-26.22567 83.60073,-36.51676a77.8009,71.47326 0 0 1 -4.49894,15.71881a4.98677,4.58119 0 0 0 7.22721,5.6269c15.37589,-8.84702 34.67253,-25.14677 35.95536,-51.58822c-11.31058,-14.72289 -47.97059,-42.90719 -47.97059,-42.90719z"/>
    <path stroke="null" id="svg_81" fill="#fff" opacity="0.2" d="m150.79327,449.74024c-40.83373,3.03753 -54.36667,27.0556 -58.99209,58.97457c-2.34884,16.28316 -3.39679,32.76549 -18.26677,42.29305a5.00484,4.59779 0 0 0 2.94509,8.39886c54.81837,-1.57686 80.38462,-26.22567 83.60073,-36.51676a77.8009,71.47326 0 0 1 -4.49894,15.71881a4.98677,4.58119 0 0 0 7.22721,5.6269c15.37589,-8.84702 34.67253,-25.14677 35.95536,-51.58822c-11.31058,-14.72289 -47.97059,-42.90719 -47.97059,-42.90719z"/>
    <polygon stroke="null" id="svg_82" fill="#407BFF" points="205.10573005861403,503.9842172371185 139.69951410977188,443.89754045123243 174.53463665998385,436.975972436628 212.64009659562322,471.982233884862 205.10573005861403,503.9842172371185 "/>
   </g>
  </g>
 </g>
</svg>