<svg width="500" height="460" xmlns="http://www.w3.org/2000/svg">
 <defs>
  <clipPath id="freepik--clip-path--inject-32">
   <path id="svg_1" fill="#3B82F6" stroke="#263238" stroke-linecap="round" stroke-linejoin="round" stroke-width="1.193px" d="m87.60136,404.26754l0,22.52a4.84,4.84 0 0 0 2.62,4.26l36.2,18.69a4.81,4.81 0 0 0 4.19,0.12l53.33,-20.33a4.84,4.84 0 0 0 2.86,-4.41l0,-27.22l-61,18.43l-38.2,-12.06z"/>
  </clipPath>
  <clipPath id="freepik--clip-path-2--inject-32">
   <path id="svg_2" fill="#fff" stroke="#263238" stroke-linecap="round" stroke-linejoin="round" stroke-width="1.193px" d="m143.32136,366.24754l-58.5,18.8a2.26,2.26 0 0 0 -1.57,2.16l0,16.68a2.27,2.27 0 0 0 1.29,2l40.78,19.41a2.27,2.27 0 0 0 1.77,0.08l61.23,-22.91a2.27,2.27 0 0 0 1.48,-2.12l0.11,-15.65a2.29,2.29 0 0 0 -1.79,-2.22l-43.64,-16.29a2.36,2.36 0 0 0 -1.16,0.06z"/>
  </clipPath>
  <clipPath id="freepik--clip-path-3--inject-32">
   <path id="svg_3" fill="#3B82F6" stroke="#263238" stroke-linecap="round" stroke-linejoin="round" stroke-width="1.193px" d="m98.66136,290.31754s-2.34,13.73 -0.67,20.45a28.62,28.62 0 0 0 4.69,10.39s-8.38,12.4 -6.7,22.78s6,11.73 6,11.73s-3.68,19.11 3,25.81s21.45,14.07 37.87,11.06s27.48,-3.69 30.83,-9.39s1.34,-30.83 1.34,-30.83s-0.67,-27.81 -1.34,-44.91s-3,-30.83 -11.06,-37.53s-43.57,3.69 -54.29,10.72s-9.67,9.72 -9.67,9.72z"/>
  </clipPath>
  <clipPath id="freepik--clip-path-4--inject-32">
   <path id="svg_4" fill="#757575" stroke="#263238" stroke-linecap="round" stroke-linejoin="round" stroke-width="1.193px" d="m168.70136,273.89754s-6.36,-9.72 -15.08,-15.08s-31.16,-9.38 -40.21,-11.06s-18.77,-1 -21.45,9s-2.35,26.81 0.33,34.18s13.74,11.73 22.46,6.71s32.84,-24.47 41.22,-25.47s12.06,5.41 12.73,1.72z"/>
  </clipPath>
  <clipPath id="freepik--clip-path-5--inject-32">
   <path id="svg_5" fill="#3B82F6" stroke="#263238" stroke-linecap="round" stroke-linejoin="round" stroke-width="1.193px" d="m154.63136,273.89754c7.37,-2.68 16.76,-1 20.11,8.38s6.36,36.86 6.36,36.86s8.38,1 11.73,4.7s5,13.07 4.36,17.76s-12.4,13.4 -25.8,13.74s-23.13,-6 -27.82,-23.13s-2.83,-43.16 -2.83,-43.16s1.7,-7.67 4.26,-9.38"/>
  </clipPath>
 </defs>
 <g>
  <title>Layer 1</title>
  <g transform="rotate(-0.0861993 248.614 231.651)" stroke="null" id="svg_101">
   <g stroke="null" id="freepik--background-simple--inject-32">
    <path stroke="null" id="svg_6" fill="#3B82F6" d="m11.8751,239.26993s2.70473,83.24869 72.82064,138.67178s167.25614,59.43728 245.90059,64.7059s139.0003,-38.84178 148.2079,-105.47494s-50.98711,-86.24792 -83.59354,-162.16388s-29.70603,-100.85635 -98.69401,-147.54404s-176.97016,-18.07523 -233.55089,61.91193s-51.0907,149.89325 -51.0907,149.89325z"/>
    <path stroke="null" id="svg_7" fill="#fff" opacity="0.7" d="m11.8751,239.26993s2.70473,83.24869 72.82064,138.67178s167.25614,59.43728 245.90059,64.7059s139.0003,-38.84178 148.2079,-105.47494s-50.98711,-86.24792 -83.59354,-162.16388s-29.70603,-100.85635 -98.69401,-147.54404s-176.97016,-18.07523 -233.55089,61.91193s-51.0907,149.89325 -51.0907,149.89325z"/>
   </g>
   <g stroke="null" id="freepik--Hole--inject-32">
    <ellipse stroke="#263238" id="svg_8" fill="#263238" stroke-linecap="round" stroke-linejoin="round" stroke-width="1.193px" ry="24.42722" rx="83.09863" cy="384.82968" cx="353.91459"/>
    <path stroke="#263238" id="svg_9" fill="#fff" stroke-linecap="round" stroke-linejoin="round" stroke-width="1.193px" d="m353.91459,371.63534c39.30496,0 72.22215,7.98275 80.86579,18.80508a9.2076,9.12314 0 0 0 2.23284,-5.61073c0,-13.50225 -37.21023,-24.43862 -83.09863,-24.43862s-83.11014,10.93637 -83.11014,24.43862a9.2076,9.12314 0 0 0 2.23284,5.61073c8.64364,-10.77671 41.56082,-18.80508 80.8773,-18.80508z"/>
    <path stroke="#fff" id="svg_10" fill="none" stroke-linecap="round" stroke-linejoin="round" stroke-width="1.193px" d="m342.56621,406.18924c-27.76093,-1.24303 -48.70823,-6.84236 -48.70823,-13.68472a3.83267,3.79751 0 0 1 0.67906,-2.08692"/>
    <path stroke="#fff" id="svg_11" fill="none" stroke-linecap="round" stroke-linejoin="round" stroke-width="1.193px" d="m406.98492,385.84463c4.75343,1.99569 7.46967,4.27647 7.46967,6.70551c0,7.67484 -27.0013,13.88999 -60.2983,13.88999l-1.43869,0"/>
    <path stroke="#fff" id="svg_12" fill="none" stroke-linecap="round" stroke-linejoin="round" stroke-width="1.193px" d="m301.97219,385.58234c10.43912,-4.13963 29.92471,-6.93359 52.1841,-6.93359a212.26981,210.32267 0 0 1 37.79722,3.06766"/>
    <path stroke="#fff" id="svg_13" fill="none" stroke-linecap="round" stroke-linejoin="round" stroke-width="1.193px" d="m341.77206,397.31699c-7.03231,-0.96933 -11.7397,-2.73694 -11.7397,-4.76684c0,-3.06766 10.80743,-5.55371 24.16996,-5.55371s24.11241,2.48606 24.11241,5.55371c0,2.63431 -7.94156,4.83527 -18.59936,5.40546"/>
   </g>
   <g stroke="null" id="freepik--Landscape--inject-32">
    <path stroke="#263238" id="svg_14" fill="none" stroke-linecap="round" stroke-linejoin="round" stroke-width="1.193px" d="m20.17345,286.63045c36.24343,-10.20652 112.50542,-30.34586 154.59568,-31.86258c56.58073,-1.98428 152.10963,38.70494 211.75188,45.83239s99.71836,5.09756 99.71836,5.09756"/>
    <path stroke="#263238" id="svg_15" fill="none" stroke-linecap="round" stroke-linejoin="round" stroke-width="1.193px" d="m0.0088,292.45786s3.13059,-0.94653 8.62062,-2.53167"/>
    <path stroke="#263238" id="svg_16" fill="none" stroke-linecap="round" stroke-linejoin="round" stroke-width="1.193px" d="m470.13757,228.97218a262.80805,260.39733 0 0 0 -63.64757,-5.96426c-44.21952,1.47111 -92.07604,7.2643 -151.24641,14.82511s-143.43146,-34.21179 -200.72578,-18.71385s-52.94373,20.16215 -52.94373,20.16215"/>
    <path stroke="#263238" id="svg_17" fill="none" stroke-linecap="round" stroke-linejoin="round" stroke-width="1.193px" d="m486.43503,233.16882s-2.23284,-0.72985 -6.27268,-1.79042"/>
   </g>
   <g stroke="null" id="freepik--Clouds--inject-32">
    <path stroke="#263238" id="svg_18" fill="none" stroke-linecap="round" stroke-linejoin="round" stroke-width="1.193px" d="m380.34041,125.45871a11.91234,11.80307 0 0 0 -23.13411,0l23.13411,0z"/>
    <path stroke="#263238" id="svg_19" fill="none" stroke-linecap="round" stroke-linejoin="round" stroke-width="1.193px" d="m497.21944,125.45871a14.74368,14.60843 0 0 0 -12.66046,-11.14164a34.52852,34.21179 0 0 0 -34.04512,-40.57518a34.62059,34.30302 0 0 0 -34.07965,28.27034a22.12127,21.91835 0 0 0 -35.74852,17.28836a22.33995,22.13503 0 0 0 0.90925,6.18093l115.62449,-0.02281z"/>
    <path stroke="#263238" id="svg_20" fill="none" stroke-linecap="round" stroke-linejoin="round" stroke-width="1.193px" d="m174.45838,152.9878a6.04249,5.98706 0 0 0 -11.75121,0l11.75121,0z"/>
    <path stroke="#263238" id="svg_21" fill="none" stroke-linecap="round" stroke-linejoin="round" stroke-width="1.193px" d="m233.78988,152.9878a7.5042,7.43536 0 0 0 -6.43381,-5.70196a17.57502,17.4138 0 1 0 -34.52852,-6.24935a11.23328,11.13024 0 0 0 -18.15049,8.76962a11.57856,11.47235 0 0 0 0.46038,3.14748l58.65244,0.03421z"/>
    <path stroke="#263238" id="svg_22" fill="none" stroke-linecap="round" stroke-linejoin="round" stroke-width="1.193px" d="m227.81644,171.39374a3.80965,3.7747 0 0 0 -7.41212,0l7.41212,0z"/>
    <path stroke="#263238" id="svg_23" fill="none" stroke-linecap="round" stroke-linejoin="round" stroke-width="1.193px" d="m265.26837,171.39374a4.7189,4.67561 0 0 0 -4.06286,-3.56943a10.91101,10.81093 0 0 0 0.18415,-2.0185a11.09516,10.99339 0 0 0 -21.98316,-1.97288a7.08986,7.02482 0 0 0 -11.45196,5.54231a7.19344,7.12746 0 0 0 0.28774,1.98428l37.02608,0.03421z"/>
   </g>
   <g stroke="null" id="freepik--Character--inject-32">
    <path stroke="null" id="svg_24" fill="#263238" d="m148.07859,302.76701a2.1753,2.15534 0 0 1 -1.15095,-0.30791a2.3019,2.28079 0 0 1 -0.80567,-3.04485c0.56397,-0.98074 142.86749,-154.73992 207.97677,-211.12095a1.15095,1.14039 0 0 1 1.56529,0.11404a1.15095,1.14039 0 0 1 -0.1151,1.57374c-64.78701,56.14155 -204.98429,210.699 -205.54826,211.66834a2.20983,2.18955 0 0 1 -1.92209,1.11759z"/>
    <path stroke="#263238" id="svg_25" fill="#3B82F6" stroke-linecap="round" stroke-linejoin="round" stroke-width="1.193px" d="m155.93958,272.17026s7.05533,-7.45817 11.29082,-7.45817s12.2346,6.99061 11.76271,10.71969s-7.52722,0.46756 -7.52722,0.46756s-6.59495,8.86085 -13.17838,7.45817s-2.34794,-11.18725 -2.34794,-11.18725z"/>
    <path stroke="#263238" id="svg_26" fill="#3B82F6" stroke-linecap="round" stroke-linejoin="round" stroke-width="1.193px" d="m171.50043,275.87654s4.31606,2.96502 4.69588,5.05194s-4.78795,7.98275 -10.5312,9.30561s-8.81628,-1.90446 -7.08986,-4.9379s8.57458,-9.14595 12.92517,-9.41965z"/>
    <path stroke="#263238" id="svg_27" fill="none" stroke-linecap="round" stroke-linejoin="round" stroke-width="1.193px" d="m348.74682,248.86063l0,-154.28376s-3.1421,11.16445 -3.1421,11.97413"/>
    <rect stroke="#263238" id="svg_28" fill="#3B82F6" stroke-linecap="round" stroke-linejoin="round" stroke-width="1.193px" height="94.78946" width="119.39961" y="256.99163" x="294.28384"/>
    <path stroke="null" id="svg_29" fill="#263238" d="m350.45023,256.5925l0,-5.42827a1.36963,1.35707 0 0 0 -2.73926,0l0,5.42827l2.73926,0z"/>
    <path stroke="null" id="svg_30" fill="#263238" d="m361.40728,243.38675l0,0.27369a1.32359,1.31145 0 0 0 -1.15095,-0.69564a1.38114,1.36847 0 0 0 -1.38114,1.36847l0,14.49439a4.22399,4.18524 0 0 1 -4.21248,4.18524a4.10889,4.0712 0 0 1 -1.68039,-0.35352a2.3019,2.28079 0 0 0 0.34529,2.94221a7.29703,7.23009 0 0 0 1.3351,0.12544a6.96325,6.89938 0 0 0 6.96325,-6.89938l0,-6.71691l3.1536,0l-3.37229,-8.72401z"/>
    <path stroke="#263238" id="svg_31" fill="none" stroke-linecap="round" stroke-linejoin="round" stroke-width="1.193px" d="m348.86191,93.12857s2.44002,-8.58716 0.27623,-7.78888s-0.27623,7.78888 -0.27623,7.78888z"/>
    <path stroke="#263238" id="svg_32" fill="none" stroke-linecap="round" stroke-linejoin="round" stroke-width="1.193px" d="m348.86191,93.12857s-9.2076,-3.22731 -8.39043,-0.27369s8.39043,0.27369 8.39043,0.27369z"/>
    <path stroke="#263238" id="svg_33" fill="#263238" stroke-linecap="round" stroke-linejoin="round" stroke-width="1.193px" d="m150.31143,167.97256s-11.35988,-6.30637 -33.64228,-3.14748s-26.52941,21.35956 -22.89241,40.27868s24.71091,34.94164 27.89904,33.59598s-0.90925,-43.69986 6.36476,-51.80805s30.91453,-6.75113 32.22662,-13.0575s-9.95572,-5.86162 -9.95572,-5.86162z"/>
    <path stroke="#263238" id="svg_34" fill="#757575" stroke-linecap="round" stroke-linejoin="round" stroke-width="1.193px" d="m110.70722,179.20543l2.3019,14.90494s-14.27179,38.6023 -11.95838,43.96215s23.90524,7.2529 23.90524,7.2529s35.10399,4.20805 45.52009,0s5.01814,-16.43306 3.85568,-19.86565s-7.71137,-30.96167 -7.71137,-30.96167s2.3019,-6.50024 2.3019,-9.93282s-0.39132,-13.00048 -1.9336,-15.29267s-28.54357,-4.97211 -40.50195,-3.05625s-17.32181,4.97211 -15.77953,12.98908z"/>
    <path stroke="#263238" id="svg_35" fill="#fff" stroke-linecap="round" stroke-linejoin="round" stroke-width="1.193px" d="m116.88783,196.41396s-0.39132,33.24245 1.54227,39.74269s9.64497,14.14087 25.83884,12.22501s17.74766,-17.19713 17.74766,-17.19713l-1.15095,-35.53464l-43.97782,0.76406z"/>
    <path stroke="#263238" id="svg_36" fill="none" stroke-miterlimit="10" stroke-width="1.193px" d="m144.66027,220.29379a2.9004,2.87379 0 1 1 -2.9004,-2.86239a2.88889,2.86239 0 0 1 2.9004,2.86239z"/>
    <path stroke="null" id="svg_37" fill="#263238" d="m144.26894,232.33634a1.9336,1.91586 0 1 1 -1.92209,-1.91586a1.92209,1.90446 0 0 1 1.92209,1.91586z"/>
    <path stroke="null" id="svg_38" fill="#263238" d="m132.62132,208.03456c1.23152,1.32286 1.65737,2.908 0.9668,3.55803s-2.3019,0.10264 -3.5104,-1.20882s-1.66888,-2.8966 -0.9668,-3.54662s2.27888,-0.11404 3.5104,1.19741z"/>
    <path stroke="null" id="svg_39" fill="#263238" d="m148.28576,208.03456c-1.23152,1.32286 -1.66888,2.908 -0.9668,3.55803s2.3019,0.10264 3.45285,-1.20882s1.66888,-2.8966 0.9668,-3.54662s-2.22133,-0.11404 -3.45285,1.19741z"/>
    <path stroke="#263238" id="svg_40" fill="none" stroke-linecap="round" stroke-linejoin="round" stroke-width="1.193px" d="m124.38052,203.53001a7.36608,7.29851 0 0 1 8.05665,-2.94221"/>
    <path stroke="#263238" id="svg_41" fill="none" stroke-linecap="round" stroke-linejoin="round" stroke-width="1.193px" d="m147.67576,201.00974s5.50154,-1.67638 7.20495,2.94221"/>
    <path stroke="#263238" id="svg_42" fill="#263238" stroke-linecap="round" stroke-linejoin="round" stroke-width="1.193px" d="m166.2521,414.28604s6.06551,-3.60364 9.42629,-5.01773a9.2076,9.12314 0 0 1 0.9668,-0.37633c2.96945,-0.98074 11.3829,-0.49037 19.28993,-5.39406s3.95927,-10.78812 -1.97963,-12.25922s-12.36121,-3.42118 -12.36121,-3.42118l-1.48473,-23.04734s-17.81671,4.90369 -23.75562,7.35553s-2.47454,37.25664 -1.97963,40.19885s0.49491,4.90369 11.87781,1.96148z"/>
    <path stroke="#263238" id="svg_43" fill="#fff" stroke-linecap="round" stroke-linejoin="round" stroke-width="1.193px" d="m186.04845,403.49792c-10.35856,1.96148 -10.35856,3.92295 -21.77598,5.88443a44.17348,43.76828 0 0 1 -10.16289,0.82108c0.1151,1.04916 0.20717,1.79042 0.26472,2.12113c0.49491,2.94221 0.49491,4.90369 11.87781,1.96148c0,0 6.06551,-3.60364 9.42629,-5.01773a9.2076,9.12314 0 0 1 0.9668,-0.37633c2.96945,-0.98074 11.3829,-0.49037 19.28993,-5.39406c2.5436,-1.56234 3.84417,-3.23872 4.27003,-4.83527a59.34301,58.79866 0 0 1 -14.15669,4.83527z"/>
    <path stroke="#263238" id="svg_44" fill="#263238" stroke-linecap="round" stroke-linejoin="round" stroke-width="1.193px" d="m190.16885,390.94219s-0.37981,26.75362 -1.15095,32.47839s0.37981,13.00048 9.2076,13.00048s26.23016,-5.70196 32.39926,-6.84236s16.20538,-3.83172 20.44088,-13.37681s-21.59183,-8.4161 -21.59183,-8.4161l1.54227,-19.48932s-26.57545,5.31423 -40.84724,2.64571z"/>
    <path stroke="#263238" id="svg_45" fill="#fff" stroke-linecap="round" stroke-linejoin="round" stroke-width="1.193px" d="m251.11168,416.16768a4.30456,4.26507 0 0 0 0.32227,-2.99923a24.16996,23.94825 0 0 1 -10.35856,7.98275c-9.2076,3.82032 -26.62149,7.98275 -39.73081,9.94423c-5.99645,0.8667 -9.79459,-0.10264 -12.17706,-1.40268c0.8517,3.70628 3.34927,6.75113 9.09251,6.75113c8.87383,0 26.23016,-5.70196 32.39926,-6.84236s16.21689,-3.88874 20.45239,-13.43383z"/>
    <path stroke="#fff" id="svg_46" fill="none" stroke-linecap="round" stroke-linejoin="round" stroke-width="1.193px" d="m229.51985,407.75158s1.92209,6.50024 -3.45285,10.70829"/>
    <path stroke="#263238" id="svg_47" fill="#757575" stroke-linecap="round" stroke-linejoin="round" stroke-width="1.193px" d="m187.47563,376.80132s-0.59849,11.6206 0.05755,13.94701c2.46303,8.82664 3.24568,6.76253 21.76448,6.3748s25.99997,-7.70906 27.93357,-12.29344s0,-14.52861 -0.77114,-17.97259s-6.9057,-4.56157 -9.26515,-4.19665s-38.56835,10.32056 -39.7193,14.14087z"/>
    <path stroke="null" id="svg_48" fill="#3B82F6" d="m60.18049,405.84713l0,25.68165a5.5706,5.5195 0 0 0 3.01549,4.85807l41.66441,21.31394a5.53607,5.48529 0 0 0 4.82248,0.13685l61.38019,-23.18419a5.5706,5.5195 0 0 0 3.29172,-5.02913l0,-31.0415l-70.20798,21.01744l-43.96631,-13.75314z"/>
    <g stroke="null" id="svg_49" clip-path="url(#freepik--clip-path--inject-32)">
     <path stroke="null" id="svg_50" opacity="0.18" d="m107.24286,418.67655l-3.08455,0.92372l-43.97782,-13.75314l0,25.68165a5.5706,5.5195 0 0 0 3.01549,4.85807l41.66441,21.31394a5.47852,5.42827 0 0 0 2.38247,0.61581l0,-39.64006z"/>
    </g>
    <path stroke="#263238" id="svg_51" fill="none" stroke-linecap="round" stroke-linejoin="round" stroke-width="1.193px" d="m60.18049,405.84713l0,25.68165a5.5706,5.5195 0 0 0 3.01549,4.85807l41.66441,21.31394a5.53607,5.48529 0 0 0 4.82248,0.13685l61.38019,-23.18419a5.5706,5.5195 0 0 0 3.29172,-5.02913l0,-31.0415l-70.20798,21.01744l-43.96631,-13.75314z"/>
    <path stroke="null" id="svg_52" fill="#fff" d="m124.31146,362.48939l-67.33061,21.43939a2.60115,2.57729 0 0 0 -1.80699,2.46325l0,19.02175a2.61266,2.58869 0 0 0 1.48473,2.28079l46.93576,22.13503a2.61266,2.58869 0 0 0 2.03718,0.09123l70.4727,-26.1264a2.61266,2.58869 0 0 0 1.70341,-2.41763l0.1266,-17.84715a2.63568,2.6115 0 0 0 -2.0602,-2.53167l-50.22748,-18.577a2.71624,2.69133 0 0 0 -1.3351,0.06842z"/>
    <g stroke="null" id="svg_53" clip-path="url(#freepik--clip-path-2--inject-32)">
     <path stroke="null" id="svg_54" fill="#3B82F6" d="m103.51378,429.81819l0,0a2.61266,2.58869 0 0 0 2.03718,0.09123l70.55327,-26.115a2.61266,2.58869 0 0 0 1.70341,-2.41763l0.1266,-17.84715a2.53209,2.50886 0 0 0 -0.62151,-1.65357l-72.79762,26.63958l-1.00133,21.30254z"/>
     <path stroke="null" id="svg_55" fill="#fff" opacity="0.5" d="m103.51378,429.81819l0,0a2.61266,2.58869 0 0 0 2.03718,0.09123l70.55327,-26.115a2.61266,2.58869 0 0 0 1.70341,-2.41763l0.1266,-17.84715a2.53209,2.50886 0 0 0 -0.62151,-1.65357l-72.79762,26.63958l-1.00133,21.30254z"/>
     <path stroke="null" id="svg_56" fill="#3B82F6" d="m55.17386,386.335l0,19.02175a2.61266,2.58869 0 0 0 1.48473,2.28079l46.93576,22.19205a2.57813,2.55448 0 0 0 1.00133,0.25089l0,-21.56483l-49.34125,-22.6254a1.92209,1.90446 0 0 0 -0.08057,0.44475z"/>
    </g>
    <path stroke="#263238" id="svg_57" fill="none" stroke-linecap="round" stroke-linejoin="round" stroke-width="1.193px" d="m124.31146,362.48939l-67.33061,21.43939a2.60115,2.57729 0 0 0 -1.80699,2.46325l0,19.02175a2.61266,2.58869 0 0 0 1.48473,2.28079l46.93576,22.13503a2.61266,2.58869 0 0 0 2.03718,0.09123l70.4727,-26.1264a2.61266,2.58869 0 0 0 1.70341,-2.41763l0.1266,-17.84715a2.63568,2.6115 0 0 0 -2.0602,-2.53167l-50.22748,-18.577a2.71624,2.69133 0 0 0 -1.3351,0.06842z"/>
    <path stroke="#263238" id="svg_58" fill="#263238" stroke-linecap="round" stroke-linejoin="round" stroke-width="1.193px" d="m216.79034,327.50213s8.86232,4.19665 13.50065,12.61275s1.15095,24.45003 -1.55378,29.42214s-20.8207,7.2643 -26.98979,7.2643s-7.33156,-0.76406 -7.33156,-0.76406s-19.66975,3.82032 -32.01944,6.11251s-9.2076,-26.36589 -5.39796,-39.36637s25.45903,-19.48932 34.33286,-19.48932s25.45903,4.20805 25.45903,4.20805z"/>
    <path stroke="#fff" id="svg_59" fill="none" stroke-linecap="round" stroke-linejoin="round" stroke-width="1.193px" d="m194.41586,376.03726s16.5852,-5.70196 23.52543,-20.25338"/>
    <path stroke="#fff" id="svg_60" fill="none" stroke-linecap="round" stroke-linejoin="round" stroke-width="1.193px" d="m210.22992,367.62116a44.04688,43.64284 0 0 0 14.27179,-9.54509"/>
    <path stroke="#263238" id="svg_61" fill="#757575" stroke-linecap="round" stroke-linejoin="round" stroke-width="1.193px" d="m171.27024,340.11488s4.6038,24.0737 2.3019,34.00652s-15.81406,11.47235 -18.89861,10.32056s-1.54227,-24.83776 -1.54227,-36.68644s11.96989,-11.08462 18.13898,-7.64063z"/>
    <path stroke="null" id="svg_62" fill="#3B82F6" d="m72.91001,275.89935s-2.69322,15.6576 -0.77114,23.32104a32.94021,32.63805 0 0 0 5.39796,11.84868s-9.64497,14.14087 -7.71137,25.97815s6.9057,13.37681 6.9057,13.37681s-4.2355,21.79291 3.45285,29.43354s24.68789,16.04533 43.5865,12.61275s31.62812,-4.20805 35.48381,-10.70829s1.54227,-35.15831 1.54227,-35.15831s-0.77114,-31.71433 -1.54227,-51.21505s-3.45285,-35.15831 -12.72951,-42.79895s-50.14692,4.20805 -62.48511,12.22501s-11.12969,11.08462 -11.12969,11.08462z"/>
    <g stroke="null" id="svg_63" clip-path="url(#freepik--clip-path-3--inject-32)">
     <path stroke="null" id="svg_64" opacity="0.3" d="m75.66078,275.89935s-2.70473,15.669 -0.77114,23.32104a32.72152,32.42137 0 0 0 5.39796,11.84868s-9.64497,14.14087 -7.71137,25.97815s6.9057,13.37681 6.9057,13.37681s-4.24701,21.79291 3.45285,29.43354s24.73393,16.04533 43.67857,12.61275s31.63963,-4.20805 35.49532,-10.70829s1.54227,-35.15831 1.54227,-35.15831s-0.77114,-31.71433 -1.54227,-51.21505s-3.45285,-35.15831 -12.72951,-42.79895s-50.14692,4.20805 -62.48511,12.22501s-11.23328,11.08462 -11.23328,11.08462z"/>
    </g>
    <path stroke="#263238" id="svg_65" fill="none" stroke-linecap="round" stroke-linejoin="round" stroke-width="1.193px" d="m72.91001,275.89935s-2.69322,15.6576 -0.77114,23.32104a32.94021,32.63805 0 0 0 5.39796,11.84868s-9.64497,14.14087 -7.71137,25.97815s6.9057,13.37681 6.9057,13.37681s-4.2355,21.79291 3.45285,29.43354s24.68789,16.04533 43.5865,12.61275s31.62812,-4.20805 35.48381,-10.70829s1.54227,-35.15831 1.54227,-35.15831s-0.77114,-31.71433 -1.54227,-51.21505s-3.45285,-35.15831 -12.72951,-42.79895s-50.14692,4.20805 -62.48511,12.22501s-11.12969,11.08462 -11.12969,11.08462z"/>
    <path stroke="#263238" id="svg_66" fill="none" stroke-linecap="round" stroke-linejoin="round" stroke-width="1.193px" d="m77.53683,311.06907a46.92425,46.49382 0 0 0 41.27309,5.70196"/>
    <path stroke="#263238" id="svg_67" fill="none" stroke-linecap="round" stroke-linejoin="round" stroke-width="1.193px" d="m76.76569,350.42403s19.66975,19.11299 52.08051,0.76406"/>
    <path stroke="null" id="svg_68" fill="#757575" d="m153.52258,257.1741s-7.32005,-11.08462 -17.35633,-17.19713s-35.86362,-10.69689 -46.27972,-12.61275s-21.60334,-1.14039 -24.68789,10.26354s-2.70473,30.57394 0.37981,38.97863s15.81406,13.37681 25.85035,7.65204s37.79722,-27.90542 47.44218,-29.04581s13.88046,6.16953 14.6516,1.96148z"/>
    <g stroke="null" id="svg_69" clip-path="url(#freepik--clip-path-4--inject-32)">
     <path stroke="null" id="svg_70" opacity="0.3" d="m132.12641,255.06437c5.88136,-2.42904 -8.82779,1.93867 -9.8061,0.47897s10.2895,-8.73541 12.74102,-9.70474s-14.21424,2.42904 -13.71933,0s16.17086,-2.91941 5.38645,-5.34844s-46.03802,-8.74681 -52.94373,-11.17585a5.6857,5.63354 0 0 1 -1.48473,-0.72985a13.71933,13.59348 0 0 0 -7.10136,9.12314c-3.08455,11.46095 -2.70473,30.57394 0.37981,38.97863c2.69322,7.32132 12.66046,12.03115 21.86806,9.35122c4.24701,-3.42118 8.17175,-7.91433 14.81273,-12.05395c13.2014,-8.27925 23.98581,-16.5357 29.86717,-18.91912z"/>
    </g>
    <path stroke="#263238" id="svg_71" fill="none" stroke-linecap="round" stroke-linejoin="round" stroke-width="1.193px" d="m153.52258,257.1741s-7.32005,-11.08462 -17.35633,-17.19713s-35.86362,-10.69689 -46.27972,-12.61275s-21.60334,-1.14039 -24.68789,10.26354s-2.70473,30.57394 0.37981,38.97863s15.81406,13.37681 25.85035,7.65204s37.79722,-27.90542 47.44218,-29.04581s13.88046,6.16953 14.6516,1.96148z"/>
    <path stroke="#263238" id="svg_72" fill="#3B82F6" stroke-linecap="round" stroke-linejoin="round" stroke-width="1.193px" d="m195.187,309.15321s8.87383,1.14039 14.6516,3.42118s9.64497,16.43306 7.33156,18.33752s-6.9057,-0.37633 -6.9057,-0.37633a56.47714,55.95908 0 0 1 -11.18724,2.66852c-4.66135,0.41054 -9.67949,-21.37096 -3.89021,-24.05089z"/>
    <path stroke="#263238" id="svg_73" fill="#757575" stroke-linecap="round" stroke-linejoin="round" stroke-width="1.193px" d="m165.87228,308.00141s1.54227,0 10.02478,-3.82032s15.43425,-3.82032 20.83221,4.56157s7.71137,18.73666 4.6038,24.84916s-14.6516,10.32056 -20.83221,10.32056s-6.9057,-7.98275 -6.9057,-7.98275s-0.77114,-12.61275 -4.6038,-17.19713s-4.66135,-9.5793 -3.11908,-10.7311z"/>
    <path stroke="null" id="svg_74" fill="#3B82F6" d="m137.32871,257.1741c8.48251,-3.05625 19.28993,-1.14039 23.14562,9.55649s7.32005,42.03488 7.32005,42.03488s9.64497,1.14039 13.50065,5.35985s5.75475,14.90494 5.01814,20.25338s-14.27179,15.28127 -29.69452,15.669s-26.62149,-6.84236 -32.01944,-26.37729s-3.25719,-49.21936 -3.25719,-49.21936s1.95662,-8.74681 4.90305,-10.69689"/>
    <g stroke="null" id="svg_75" clip-path="url(#freepik--clip-path-5--inject-32)">
     <path stroke="null" id="svg_76" opacity="0.3" d="m186.31317,334.3787c0.77114,-5.34844 -1.15095,-16.05673 -5.01814,-20.25338c-0.14962,-0.17106 -0.33378,-0.33071 -0.49491,-0.49037a98.11854,97.2185 0 0 1 0.82868,10.35477c0.77114,22.43153 -30.86849,18.67964 -37.24476,2.42904c-3.45285,-8.74681 -4.41965,-47.12104 -14.70915,-50.02904c-5.9389,-1.67638 -7.96458,2.93081 -8.60911,7.13886c-0.20717,11.00479 0.16113,27.96244 3.53342,40.14183c5.39796,19.50072 16.5852,26.75362 32.01944,26.37729s28.92339,-10.32056 29.69452,-15.669z"/>
    </g>
    <path stroke="#263238" id="svg_77" fill="none" stroke-linecap="round" stroke-linejoin="round" stroke-width="1.193px" d="m137.32871,257.1741c8.48251,-3.05625 19.28993,-1.14039 23.14562,9.55649s7.32005,42.03488 7.32005,42.03488s9.64497,1.14039 13.50065,5.35985s5.75475,14.90494 5.01814,20.25338s-14.27179,15.28127 -29.69452,15.669s-26.62149,-6.84236 -32.01944,-26.37729s-3.25719,-49.21936 -3.25719,-49.21936s1.95662,-8.74681 4.90305,-10.69689"/>
    <path stroke="#263238" id="svg_78" fill="none" stroke-linecap="round" stroke-linejoin="round" stroke-width="1.193px" d="m167.79437,308.76547s3.01549,13.9242 -12.4763,21.56483"/>
   </g>
   <g stroke="null" id="freepik--Text--inject-32">
    <path stroke="null" id="svg_79" fill="#263238" d="m91.04899,66.04424c0,-3.17029 1.47322,-5.5081 4.79946,-5.5081s4.86852,2.28079 4.86852,5.5081l0,11.11883c0,3.17029 -1.48473,5.5081 -4.86852,5.5081s-4.79946,-2.28079 -4.79946,-5.5081l0,-11.11883zm1.43869,11.22147c0,2.37202 0.94378,4.10541 3.36078,4.10541s3.45285,-1.7334 3.45285,-4.10541l0,-11.3127c0,-2.36061 -0.9668,-4.10541 -3.45285,-4.10541s-3.36078,1.7448 -3.36078,4.10541l0,11.3127z"/>
    <path stroke="null" id="svg_80" fill="#263238" d="m103.00736,66.04424c0,-3.17029 1.47322,-5.5081 4.79946,-5.5081s4.86852,2.28079 4.86852,5.5081l0,11.11883c0,3.17029 -1.47322,5.5081 -4.86852,5.5081s-4.79946,-2.28079 -4.79946,-5.5081l0,-11.11883zm1.43869,11.22147c0,2.37202 0.94378,4.10541 3.36078,4.10541s3.45285,-1.7334 3.45285,-4.10541l0,-11.3127c0,-2.36061 -0.9668,-4.10541 -3.45285,-4.10541s-3.36078,1.7448 -3.36078,4.10541l0,11.3127z"/>
    <path stroke="null" id="svg_81" fill="#263238" d="m119.61558,60.73001c3.38379,0 4.70739,2.10973 4.70739,5.28002l0,2.37202c0,3.42118 -1.61133,5.15458 -5.0872,5.15458l-2.72775,0l0,8.96349l-1.40416,0l0,-21.7701l4.51173,0zm-0.37981,11.50656c2.5436,0 3.637,-1.14039 3.637,-3.7633l0,-2.55448c0,-2.36061 -0.81717,-3.88874 -3.25719,-3.88874l-3.10757,0l0,10.26354l2.72775,-0.05702z"/>
    <path stroke="null" id="svg_82" fill="#263238" d="m135.7404,65.98722l0,0.45616l-1.38114,0l0,-0.55879c0,-2.28079 -0.87472,-4.03699 -3.25719,-4.03699s-3.2687,1.71059 -3.2687,4.01418c0,5.28002 7.94156,5.37125 7.94156,11.40393c0,3.13608 -1.38114,5.43967 -4.74192,5.43967s-4.73041,-2.28079 -4.73041,-5.43967l0,-1.14039l1.38114,0l0,1.20882c0,2.28079 0.90925,4.01418 3.32625,4.01418s3.32625,-1.68778 3.32625,-4.01418c0,-5.223 -7.94156,-5.31423 -7.94156,-11.40393c0,-3.26152 1.43869,-5.38265 4.67286,-5.41687s4.67286,2.3264 4.67286,5.47389z"/>
    <path stroke="null" id="svg_83" fill="#263238" d="m139.35438,79.76316l0,2.73694l-1.40416,0l0,-2.73694l1.40416,0z"/>
    <path stroke="null" id="svg_84" fill="#263238" d="m143.27912,79.76316l0,2.73694l-1.40416,0l0,-2.73694l1.40416,0z"/>
    <path stroke="null" id="svg_85" fill="#263238" d="m147.20387,79.76316l0,2.73694l-1.41567,0l0,-2.73694l1.41567,0z"/>
    <path stroke="null" id="svg_86" fill="#263238" d="m95.68732,92.39872c3.45285,0 4.70739,2.10973 4.70739,5.29142l0,2.36061c0,3.42118 -1.59982,5.16598 -5.07569,5.16598l-2.73926,0l0,8.95208l-1.43869,0l0,-21.7701l4.54625,0zm-0.3683,11.50656c2.53209,0 3.637,-1.14039 3.637,-3.7633l0,-2.55448c0,-2.36061 -0.81717,-3.87734 -3.2687,-3.87734l-3.10757,0l0,10.19511l2.73926,0z"/>
    <path stroke="null" id="svg_87" fill="#263238" d="m104.2619,109.34496l-1.15095,4.82386l-1.32359,0l4.79946,-21.80431l2.10624,0l4.89154,21.80431l-1.43869,0l-1.15095,-4.82386l-6.73306,0zm0.21868,-1.24303l6.39929,0l-3.23417,-14.08385l-3.16511,14.08385z"/>
    <path stroke="null" id="svg_88" fill="#263238" d="m125.19769,97.69014l0,1.61936l-1.38114,0l0,-1.71059c0,-2.28079 -0.90925,-4.10541 -3.32625,-4.10541s-3.32625,1.77901 -3.32625,4.10541l0,11.3241c0,2.28079 0.90925,4.0712 3.32625,4.0712s3.32625,-1.7448 3.32625,-4.0712l0,-4.69842l-2.95794,0l0,-1.30005l4.29305,0l0,5.90724c0,3.13608 -1.38114,5.49669 -4.74192,5.49669s-4.73041,-2.36061 -4.73041,-5.49669l0,-11.14164c0,-3.13608 1.38114,-5.49669 4.73041,-5.49669s4.78795,2.38342 4.78795,5.49669z"/>
    <path stroke="null" id="svg_89" fill="#263238" d="m135.06134,102.47979l0,1.30005l-5.99645,0l0,9.12314l7.21646,0l0,1.31145l-8.66666,0l0,-21.81572l8.66666,0l0,1.31145l-7.21646,0l0,8.76962l5.99645,0z"/>
    <path stroke="null" id="svg_90" fill="#263238" d="m144.8214,114.16882l-1.32359,0l0,-21.7701l1.88756,0l6.54891,18.38313l0,-18.38313l1.31208,0l0,21.7701l-1.59982,0l-6.9057,-19.38668l0.08057,19.38668z"/>
    <path stroke="null" id="svg_91" fill="#263238" d="m155.68637,97.69014c0,-3.17029 1.47322,-5.49669 4.79946,-5.49669s4.86852,2.28079 4.86852,5.49669l0,11.14164c0,3.17029 -1.48473,5.49669 -4.86852,5.49669s-4.79946,-2.28079 -4.79946,-5.49669l0,-11.14164zm1.43869,11.23287c0,2.36061 0.94378,4.10541 3.36078,4.10541s3.45285,-1.7448 3.45285,-4.10541l0,-11.3241c0,-2.36061 -0.9668,-4.10541 -3.45285,-4.10541s-3.36078,1.7448 -3.36078,4.10541l0,11.3241z"/>
    <path stroke="null" id="svg_92" fill="#263238" d="m171.50043,114.16882l0,-20.45865l-4.45418,0l0,-1.31145l10.35856,0l0,1.31145l-4.48871,0l0,20.45865l-1.41567,0z"/>
    <path stroke="null" id="svg_93" fill="#263238" d="m191.15867,103.00437l0,1.30005l-5.6857,0l0,9.8644l-1.43869,0l0,-21.7701l8.34439,0l0,1.31145l-6.9057,0l0,9.2942l5.6857,0z"/>
    <path stroke="null" id="svg_94" fill="#263238" d="m194.51944,97.69014c0,-3.17029 1.47322,-5.49669 4.79946,-5.49669s4.86852,2.28079 4.86852,5.49669l0,11.14164c0,3.17029 -1.47322,5.49669 -4.86852,5.49669s-4.79946,-2.28079 -4.79946,-5.49669l0,-11.14164zm1.43869,11.23287c0,2.36061 0.94378,4.10541 3.36078,4.10541s3.45285,-1.7448 3.45285,-4.10541l0,-11.3241c0,-2.36061 -0.9668,-4.10541 -3.45285,-4.10541s-3.36078,1.7448 -3.36078,4.10541l0,11.3241z"/>
    <path stroke="null" id="svg_95" fill="#263238" d="m207.91651,108.91161c0,2.28079 0.88623,4.13963 3.30323,4.13963s3.29172,-1.80182 3.29172,-4.13963l0,-16.51289l1.34661,0l0,16.45587c0,3.10187 -1.31208,5.49669 -4.67286,5.49669s-4.70739,-2.39483 -4.70739,-5.49669l0,-16.45587l1.43869,0l0,16.51289z"/>
    <path stroke="null" id="svg_96" fill="#263238" d="m219.6562,114.16882l-1.31208,0l0,-21.7701l1.87605,0l6.59495,18.38313l0,-18.38313l1.32359,0l0,21.7701l-1.61133,0l-6.9057,-19.38668l0.03453,19.38668z"/>
    <path stroke="null" id="svg_97" fill="#263238" d="m235.44725,92.39872c3.3953,0 4.86852,2.21236 4.86852,5.41687l0,10.93637c0,3.2045 -1.47322,5.41687 -4.86852,5.41687l-4.83399,0l0,-21.7701l4.83399,0zm0,20.45865c2.45152,0 3.45285,-1.64217 3.45285,-4.03699l0,-11.07322c0,-2.39483 -1.03586,-4.03699 -3.45285,-4.03699l-3.34927,0l0,19.1472l3.34927,0z"/>
    <path stroke="null" id="svg_98" fill="#263238" d="m308.46355,315.65345l15.66444,-36.64083l9.38025,0l0,36.64083l4.06286,0l0,7.74327l-4.06286,0l0,9.84159l-8.44798,0l0,-9.84159l-16.59671,0l0,-7.74327zm16.57369,0l0,-20.36742l-8.67817,20.36742l8.67817,0z"/>
    <path stroke="null" id="svg_99" fill="#263238" d="m340.78224,292.02451c0,-8.66699 4.6038,-13.68472 13.05178,-13.68472s13.05178,4.96071 13.05178,13.68472l0,28.19051c0,8.67839 -4.6038,13.68472 -13.05178,13.68472s-13.05178,-4.96071 -13.05178,-13.68472l0,-28.19051zm8.5976,28.7379c0,3.87734 1.71492,5.34844 4.45418,5.34844s4.45418,-1.47111 4.45418,-5.34844l0,-29.27389c0,-3.87734 -1.72643,-5.34844 -4.45418,-5.34844s-4.45418,1.47111 -4.45418,5.34844l0,29.27389z"/>
    <path stroke="null" id="svg_100" fill="#263238" d="m370.40771,315.65345l15.62991,-36.64083l9.38025,0l0,36.64083l4.06286,0l0,7.74327l-4.06286,0l0,9.84159l-8.44798,0l0,-9.84159l-16.56218,0l0,-7.74327zm16.56218,0l0,-20.36742l-8.66666,20.36742l8.66666,0z"/>
   </g>
  </g>
 </g>
</svg>