<svg width="559" height="600" xmlns="http://www.w3.org/2000/svg">
 <g>
  <title>Layer 1</title>
  <g transform="rotate(-0.0015791 271.48 300.078)" stroke="null" id="freepik--Character--inject-2">
   <g stroke="null" id="freepik--group--inject-2">
    <path stroke="null" id="svg_1" fill="#263238" d="m210.38782,144.42623s-123.65808,-19.38334 -147.12443,-9.21078s-31.37429,46.75675 -31.37429,46.75675s-4.22983,7.39822 8.57,8.35999c0,0 -52.33952,131.13345 -35.78802,156.2504s183.24348,35.17854 205.9742,22.8605s76.68861,-215.65811 -0.25747,-225.01686z"/>
    <path stroke="null" id="svg_2" fill="#e4897b" d="m283.21441,269.53013s16.36759,38.21181 20.0457,43.53852s85.14826,42.98366 85.14826,42.98366a71.90707,72.3176 0 0 1 19.89858,0c10.04124,1.59062 23.87094,5.84459 25.1215,7.39822s-15.11704,25.48687 -15.11704,25.48687s-32.55128,2.03451 -36.78111,-10.91237c0,0 -81.61728,-30.48067 -91.1068,-38.47074s-35.89836,-55.19072 -35.89836,-55.19072l28.68926,-14.83343z"/>
    <path stroke="null" id="svg_3" fill="#407BFF" d="m259.78485,185.85626c15.30094,9.17379 39.24544,107.94003 44.3948,119.66621s67.67724,40.24632 67.67724,40.24632l-27.73296,26.70757s-63.37385,-28.29819 -71.24501,-36.21429s-39.50291,-89.99934 -39.50291,-89.99934l26.40884,-60.40646z"/>
    <path stroke="null" id="svg_4" fill="#263238" d="m254.70905,411.57595s257.90913,-37.25004 271.51814,19.64227c14.38141,60.18452 -192.69622,100.76375 -316.31753,105.01773s-159.37254,-23.08245 -139.51074,-176.89144l166.98623,-0.4069l17.3239,52.63833z"/>
    <path stroke="null" id="svg_5" opacity="0.2" d="m254.70905,411.57595s257.90913,-37.25004 271.51814,19.64227c14.38141,60.18452 -192.69622,100.76375 -316.31753,105.01773s-159.37254,-23.08245 -139.51074,-176.89144l166.98623,-0.4069l17.3239,52.63833z"/>
    <path stroke="null" id="svg_6" fill="#407BFF" d="m487.64381,499.76273a0.7724,0.77681 0 0 1 -0.91953,0a0.62528,0.62885 0 0 1 -0.22069,-0.77681c0.40459,-1.36867 4.4873,-13.35379 8.64356,-14.61148a2.57468,2.58938 0 0 1 2.46433,0.73982a4.22983,4.25398 0 0 1 1.47124,4.03203a11.03433,11.09733 0 0 1 -3.86202,5.62265a45.02008,45.27711 0 0 1 -7.57691,4.9938zm1.02987,-2.29345a17.72849,17.82971 0 0 0 8.82747,-8.54494a2.68502,2.70035 0 0 0 -1.02987,-2.73734a0.91953,0.92478 0 0 0 -0.99309,-0.29593a3.67811,3.69911 0 0 0 -0.95631,0.59186a34.79493,34.99358 0 0 0 -5.8482,10.98636z"/>
    <path stroke="null" id="svg_7" fill="#407BFF" d="m487.42312,499.94768a0.73562,0.73982 0 0 1 -0.7724,-0.22195c-0.40459,-0.36991 -6.10566,-7.62017 -5.18614,-12.50299a4.78154,4.80884 0 0 1 1.98618,-2.99628a2.64824,2.66336 0 0 1 3.3103,-0.33292c2.97927,2.14548 2.61146,11.83715 1.14021,15.53626l0,0.36991l-0.47815,0.14796zm-3.27352,-14.24157a3.16318,3.18123 0 0 0 -0.99309,1.73858c-0.5885,3.10725 2.28043,7.76813 3.67811,9.9876c0.95631,-4.143 0.66206,-11.09733 -1.10343,-12.17007c-0.18391,0 -0.55172,-0.4069 -1.43446,0.22195l-0.29425,0.22195l0.14712,0z"/>
    <polygon stroke="null" id="svg_8" fill="#e4897b" points="398.30253553677176,530.243252655453 452.37077284145926,530.280362030453 478.3014979391155,530.3174103702968 481.3910670309124,502.8330658878749 457.40983534145926,499.61474313396866 398.780623915678,491.73580636639053 398.30253553677176,530.243252655453 "/>
    <path stroke="null" id="svg_9" fill="#263238" d="m475.68995,499.54078l-6.58382,31.33146a3.12639,3.14424 0 0 0 2.5379,3.69911l15.52163,2.81132s20.6342,5.28973 26.44562,1.55363c16.91931,-10.87538 33.103,-79.86378 26.33527,-85.07953c-2.50112,-1.84955 -6.87807,0.96177 -9.04815,3.21823c-6.95163,7.13928 -21.77442,27.04049 -27.65939,32.95907c-6.84129,6.88034 -19.01583,7.0653 -24.34909,6.80636a3.12639,3.14424 0 0 0 -3.19996,2.70035z"/>
    <polygon stroke="null" id="svg_10" opacity="0.2" points="398.30253553677176,530.243252655453 452.37077284145926,530.280362030453 457.40983534145926,499.61474313396866 398.780623915678,491.73580636639053 398.30253553677176,530.243252655453 "/>
    <path stroke="null" id="svg_11" fill="#263238" d="m194.13057,409.6894l0,6.88034a8.86425,8.91485 0 0 0 8.45965,8.87786l251.546,0a9.41596,9.46972 0 0 0 9.08493,-8.87786l0,-6.88034l-269.09059,0z"/>
    <path stroke="null" id="svg_12" fill="#fff" opacity="0.2" d="m194.13057,409.6894l0,6.88034a8.86425,8.91485 0 0 0 8.45965,8.87786l251.546,0a9.41596,9.46972 0 0 0 9.08493,-8.87786l0,-6.88034l-269.09059,0z"/>
    <path stroke="null" id="svg_13" fill="#fff" opacity="0.2" d="m288.1063,409.6894l0,6.88034a8.90103,8.95185 0 0 0 8.49644,8.87786l157.64383,0a9.41596,9.46972 0 0 0 9.08493,-8.87786l0,-6.88034l-175.2252,0z"/>
    <path stroke="null" id="svg_14" fill="#263238" d="m296.49239,419.12213l166.17705,0a13.60901,13.68671 0 0 0 12.10098,-8.95185l38.10523,-120.22107a6.6206,6.6584 0 0 0 -6.39991,-9.28477l-166.17705,0a13.8297,13.90865 0 0 0 -12.0642,9.28477l-38.10523,120.07311a6.47348,6.51043 0 0 0 6.36313,9.09981z"/>
    <path stroke="null" id="svg_15" fill="#fff" opacity="0.2" d="m296.49239,419.12213l166.17705,0a13.60901,13.68671 0 0 0 12.10098,-8.95185l38.10523,-120.22107a6.6206,6.6584 0 0 0 -6.39991,-9.28477l-166.17705,0a13.8297,13.90865 0 0 0 -12.0642,9.28477l-38.10523,120.07311a6.47348,6.51043 0 0 0 6.36313,9.09981z"/>
    <path stroke="null" id="svg_16" fill="#fff" opacity="0.2" d="m302.81874,419.12213l159.92426,0a13.60901,13.68671 0 0 0 12.10098,-8.95185l38.10523,-120.22107a6.6206,6.6584 0 0 0 -6.39991,-9.28477l-159.99782,0a13.8297,13.90865 0 0 0 -12.0642,9.28477l-38.10523,120.07311a6.47348,6.51043 0 0 0 6.43669,9.09981z"/>
    <path stroke="null" id="svg_17" fill="#fff" opacity="0.2" d="m399.99443,355.27549c-2.05974,7.99008 1.91262,14.50051 8.86425,14.50051s14.19751,-6.51043 16.25725,-14.50051s-1.91262,-14.50051 -8.82747,-14.50051s-14.16073,6.62141 -16.29403,14.50051z"/>
    <path stroke="null" id="svg_18" fill="#fff" opacity="0.2" d="m475.68995,499.54078l-6.58382,31.33146a3.12639,3.14424 0 0 0 2.5379,3.69911l15.52163,2.81132s20.6342,5.28973 26.44562,1.55363c16.91931,-10.87538 33.103,-79.86378 26.33527,-85.07953c-2.50112,-1.84955 -6.87807,0.96177 -9.04815,3.21823c-6.95163,7.13928 -21.77442,27.04049 -27.65939,32.95907c-6.84129,6.88034 -19.01583,7.0653 -24.34909,6.80636a3.12639,3.14424 0 0 0 -3.19996,2.70035z"/>
    <polygon stroke="null" id="svg_19" points="119.86949873257254,381.1322602238124 67.71391248989676,381.7982453312343 68.70700788784598,364.7452668156093 119.86949873257254,363.63558663982803 119.86949873257254,381.1322602238124 "/>
    <polygon stroke="null" id="svg_20" points="222.78309583950613,361.37902536053116 238.37821913052176,361.04613961834366 243.96894789028738,379.46777047771866 222.78309583950613,379.76363839764053 222.78309583950613,361.37902536053116 "/>
    <polygon stroke="null" id="svg_21" points="216.12567091274832,361.5270050968593 216.12567091274832,379.83773507732803 127.88781690884207,381.02135934490616 127.88781690884207,363.4505890812343 216.12567091274832,361.5270050968593 "/>
    <path stroke="null" id="svg_22" fill="#fff" d="m165.29418,376.65635l-0.25747,-7.13928a6.98841,7.02831 0 0 1 6.43669,-7.39822l15.963,-0.66584a6.51026,6.54742 0 0 1 4.81833,1.88655a7.35622,7.39822 0 0 1 2.17009,5.03079l0.25747,7.10229a7.02519,7.0653 0 0 1 -6.47348,7.39822l-15.92622,0.66584l-0.29425,0a6.95163,6.99132 0 0 1 -6.69416,-6.88034zm22.80429,3.21823a4.0827,4.10601 0 0 0 3.67811,-4.36495l-0.25747,-7.10229a4.41373,4.43893 0 0 0 -1.28734,-2.9223a3.67811,3.69911 0 0 0 -2.79536,-1.10973l-15.963,0.66584a4.04592,4.06902 0 0 0 -3.67811,4.36495l0.25747,7.13928a4.00914,4.03203 0 0 0 4.0827,4.03203l15.963,-0.70283z"/>
    <path stroke="null" id="svg_23" fill="#fff" d="m168.01598,374.32591l8.01828,0a1.87584,1.88655 0 0 0 1.83906,-1.84955a1.83906,1.84955 0 0 0 -1.83906,-1.84955l-8.01828,0a1.83906,1.84955 0 0 0 -1.83906,1.84955a1.87584,1.88655 0 0 0 1.83906,1.84955z"/>
    <path stroke="null" id="svg_24" fill="#407BFF" d="m259.78485,185.85626s-20.11927,127.95221 -11.69639,173.85817l-186.07563,5.43769s22.06866,-132.1692 51.30965,-182.0332c0,-0.14796 48.58784,-81.75033 146.46237,2.73734z"/>
    <path stroke="null" id="svg_25" fill="#fff" opacity="0.6" d="m259.78485,185.85626s-20.11927,127.95221 -11.69639,173.85817l-186.07563,5.43769s22.06866,-132.1692 51.30965,-182.0332c0,-0.14796 48.58784,-81.75033 146.46237,2.73734z"/>
    <path stroke="null" id="svg_26" fill="#e4897b" d="m150.61852,157.37311s30.85935,30.3327 48.69819,25.37589s24.533,-14.09361 24.533,-14.09361s-14.34463,-6.32548 -12.76304,-9.76565c0.18391,-0.36991 0.62528,-1.07274 1.25056,-2.10849c5.33326,-8.13804 24.23875,-34.10579 24.23875,-34.10579l-40.45922,-22.89749s-3.3103,7.8791 -7.35622,17.27484c-5.48039,12.50299 -12.32167,27.63235 -14.71244,30.44367c-4.19305,4.95681 -23.42957,9.87662 -23.42957,9.87662z"/>
    <path stroke="null" id="svg_27" opacity="0.2" d="m188.57662,117.05281c2.5379,14.42653 8.79068,31.40544 23.7606,39.72844c5.33326,-8.13804 24.23875,-34.10579 24.23875,-34.10579l-40.45922,-22.89749s-3.45742,7.8791 -7.54013,17.27484z"/>
    <path stroke="null" id="svg_28" fill="#263238" d="m180.448,88.93958a70.36226,70.76397 0 0 0 -3.27352,22.19466c0.7724,9.17379 -9.37918,12.24405 -10.66652,6.69539c0,0 0.18391,13.50175 8.90103,11.46724c0,0 0,9.35875 7.79759,9.50671a51.49355,51.78754 0 0 0 9.78377,-31.70137c-1.21378,-17.79272 -12.54236,-18.16263 -12.54236,-18.16263z"/>
    <path stroke="null" id="svg_29" fill="#263238" d="m250.36888,43.9584c-13.2412,5.51167 -11.03433,36.43623 11.03433,62.88487c13.49867,-11.68919 19.64111,-38.69269 16.44116,-49.34613c-5.14936,-17.0529 -15.963,-18.31059 -27.47549,-13.53874z"/>
    <path stroke="null" id="svg_30" fill="#e4897b" d="m269.71575,119.23529l0,0a92.32058,92.84766 0 0 1 -4.19305,10.35751c-13.05729,26.74456 -50.6108,31.96031 -67.23587,5.51167l-0.18391,-0.25894c-11.03433,-17.82971 -6.87807,-34.43871 -2.28043,-63.25478a39.61325,39.83941 0 0 1 61.82904,-26.70757c21.66407,15.35131 20.37673,49.75303 12.0642,74.35211z"/>
    <path stroke="null" id="svg_31" fill="#263238" d="m236.17138,88.93958c-0.51494,2.33044 0.29425,4.47592 1.76549,4.80884s3.12639,-1.2577 3.67811,-3.69911s-0.25747,-4.47592 -1.76549,-4.80884s-3.01605,1.55363 -3.67811,3.69911z"/>
    <path stroke="null" id="svg_32" fill="#263238" d="m262.35952,94.96913c-0.51494,2.29345 0.29425,4.43893 1.80227,4.77185s3.12639,-1.22071 3.67811,-3.69911s-0.29425,-4.47592 -1.80227,-4.80884s-3.23674,1.40566 -3.67811,3.7361z"/>
    <path stroke="null" id="svg_33" fill="#de5753" d="m253.49528,94.11833a84.81723,85.30147 0 0 0 6.58382,22.19466a13.49867,13.57573 0 0 1 -11.43892,-0.44389l4.85511,-21.75077z"/>
    <path stroke="null" id="svg_34" fill="#263238" d="m230.8749,79.13694a1.50803,1.51664 0 0 1 -0.80918,-0.36991a1.43446,1.44265 0 0 1 0,-1.99752a13.64579,13.7237 0 0 1 12.24811,-3.10725a1.32412,1.33168 0 0 1 0.95631,1.62761l0,0a1.43446,1.44265 0 0 1 -1.72871,0.96177l0,0a10.81365,10.87538 0 0 0 -9.63665,2.55239a1.39768,1.40566 0 0 1 -1.02987,0.33292z"/>
    <path stroke="null" id="svg_35" fill="#263238" d="m276.15244,88.93958a1.54481,1.55363 0 0 1 -1.06665,-1.07274a11.03433,11.09733 0 0 0 -6.21601,-7.84211a1.39768,1.40566 0 0 1 -0.84597,-1.77557a1.39768,1.40566 0 0 1 1.76549,-0.8508a13.71935,13.79768 0 0 1 7.9815,9.83963a1.3609,1.36867 0 0 1 -0.99309,1.6646l0,0a1.54481,1.55363 0 0 1 -0.62528,0.03699z"/>
    <path stroke="null" id="svg_36" fill="#263238" d="m243.19657,130.07368l0,0a21.11236,21.23289 0 0 1 -17.65493,-13.53874a1.02987,1.03575 0 0 1 0.69884,-1.2577a1.06665,1.07274 0 0 1 1.28734,0.70283c0,0.4069 3.01605,9.80264 15.99978,12.0591a1.06665,1.07274 0 0 1 0.84597,1.18372a1.02987,1.03575 0 0 1 -1.177,0.8508z"/>
    <path stroke="null" id="svg_37" fill="#263238" d="m275.26969,67.00386s8.53322,-6.58442 8.20219,-14.27856a28.13755,28.29819 0 0 0 -15.00669,-23.34138a54.69351,55.00576 0 0 0 -26.73987,-7.39822c-32.58806,-1.92354 -50.31656,7.9161 -55.90728,25.41289c-3.45742,6.2145 -3.38386,17.75573 -0.29425,28.55713a0.33103,0.33292 0 0 1 0,0.18496l0,0a47.22694,47.49657 0 0 0 8.49644,16.94192c19.8618,-17.31183 27.2548,-29.59288 24.12841,-37.73092c0.66206,-0.18496 10.5194,-9.06282 14.89635,-9.28477c6.32635,-0.33292 17.98596,5.69663 27.43871,11.35627c5.18614,3.07026 10.5194,-1.84955 10.5194,-1.84955l4.26661,11.43025z"/>
    <path stroke="null" id="svg_38" fill="#e4897b" d="m177.21126,91.41798a27.51227,27.66934 0 0 0 9.1585,19.08741c7.35622,6.36247 15.08025,0.8138 16.51472,-8.24902c1.32412,-8.17503 -0.88275,-21.38086 -9.85734,-24.26616s-16.33081,4.43893 -15.81588,13.42777z"/>
    <path stroke="null" id="svg_39" fill="#407BFF" d="m177.17448,110.8753s12.0642,-47.16365 41.89368,-64.73442s60.76239,-5.28973 60.76239,-5.28973a93.86539,94.40128 0 0 0 -2.02296,-14.05662c-0.88275,-1.47964 -15.66875,-6.58442 -15.66875,-6.58442s-8.42287,-12.466 -20.11927,-16.46104s-46.63844,-5.14176 -58.84977,5.10477s-20.26639,31.10951 -15.11704,31.47943s9.08493,0.36991 9.08493,0.36991s-9.63665,33.47694 -5.51717,38.50773c0.03678,-0.03699 -7.09875,23.2674 5.55395,31.66438z"/>
    <path stroke="null" id="svg_40" fill="#407BFF" d="m237.01734,542.96833a0.91953,0.92478 0 0 1 0.84597,-0.36991a0.5885,0.59186 0 0 1 0.51494,0.59186c0.29425,1.40566 2.20687,13.90865 -0.88275,16.97891a2.61146,2.62637 0 0 1 -2.50112,0.51788a4.19305,4.21699 0 0 1 -3.16318,-2.88531a11.03433,11.09733 0 0 1 0.80918,-6.76937a44.61548,44.8702 0 0 1 4.37695,-8.06406zm0,2.55239a17.65493,17.75573 0 0 0 -3.67811,11.68919a2.64824,2.66336 0 0 0 2.17009,1.92354a0.88275,0.88779 0 0 0 0.99309,-0.18496a2.61146,2.62637 0 0 0 0.5885,-0.96177a34.24321,34.43871 0 0 0 0.03678,-12.466l-0.11034,0z"/>
    <polygon stroke="null" id="svg_41" fill="#e4897b" points="319.3334803609905,481.74816598553116 268.06059217739676,498.87499704021866 243.41728163052176,507.12398996014053 249.11830091763113,534.1642731632655 272.91569471645926,529.6145295109218 330.99305677700613,518.443203827328 319.3334803609905,481.74816598553116 "/>
    <path stroke="null" id="svg_42" fill="#263238" d="m255.77571,535.57011l-3.67811,-31.81235a3.16318,3.18123 0 0 0 -3.67811,-2.81132l-15.48485,2.29345s-21.2227,1.55363 -25.56287,6.91734c-12.6527,15.72122 -6.43669,86.33723 1.72871,89.00058c2.97927,0.96177 6.21601,-3.10725 7.57691,-5.91858c4.34017,-8.98884 12.17455,-32.58916 15.85266,-40.06136c4.34017,-8.69291 15.81588,-12.76193 20.96523,-14.20458a3.12639,3.14424 0 0 0 2.28043,-3.40318z"/>
    <path stroke="null" id="svg_43" fill="#407BFF" d="m237.12768,542.74638a0.66206,0.66584 0 0 1 0.80918,0c0.47815,0 8.90103,3.69911 10.33549,8.61893a4.4873,4.51291 0 0 1 -0.36781,3.69911a2.64824,2.66336 0 0 1 -2.75858,1.81256c-3.67811,-0.48088 -7.79759,-9.24777 -8.20219,-13.16883l0,-0.4069a0.66206,0.66584 0 0 1 0.18391,-0.55487zm9.48953,11.09733a3.05283,3.07026 0 0 0 0,-1.99752c-0.88275,-3.03327 -5.59073,-5.8076 -7.9815,-7.02831c1.06665,4.10601 4.4873,9.9876 6.6206,10.24653c0.22069,0 0.66206,0 1.14021,-0.88779l0.18391,-0.33292l0.03678,0z"/>
    <polygon stroke="null" id="svg_44" opacity="0.2" points="319.3334803609905,481.74816598553116 268.06059217739676,498.87499704021866 272.91569471645926,529.6145295109218 330.99305677700613,518.443203827328 319.3334803609905,481.74816598553116 "/>
    <polygon stroke="null" id="svg_45" fill="#407BFF" points="281.81669569302176,534.3863800968593 296.45561170864676,535.7550324406093 287.70170545864676,484.8923920597499 270.8927760152874,493.7701996769374 281.81669569302176,534.3863800968593 "/>
    <polygon stroke="null" id="svg_46" fill="#fff" opacity="0.6" points="281.81669569302176,534.3863800968593 296.45561170864676,535.7550324406093 287.70170545864676,484.8923920597499 270.8927760152874,493.7701996769374 281.81669569302176,534.3863800968593 "/>
    <path stroke="null" id="svg_47" fill="#fff" opacity="0.2" d="m255.77571,535.57011l-3.67811,-31.81235a3.16318,3.18123 0 0 0 -3.67811,-2.81132l-15.48485,2.29345s-21.2227,1.55363 -25.56287,6.91734c-12.6527,15.72122 -6.43669,86.33723 1.72871,89.00058c2.97927,0.96177 6.21601,-3.10725 7.57691,-5.91858c4.34017,-8.98884 12.17455,-32.58916 15.85266,-40.06136c4.34017,-8.69291 15.81588,-12.76193 20.96523,-14.20458a3.12639,3.14424 0 0 0 2.28043,-3.40318z"/>
    <path stroke="null" id="svg_48" fill="#263238" d="m447.44206,495.61972s-239.95995,-93.73545 -313.41182,-78.08821s-73.85646,54.33992 -36.78111,90.40625s92.90908,22.19466 92.90908,22.19466s-43.73274,-26.33766 -40.67991,-42.61375s30.85935,20.93696 30.85935,20.93696s144.99113,35.65942 264.82398,26.26368l2.28043,-39.09959z"/>
    <polygon stroke="null" id="svg_49" fill="#407BFF" points="450.34782362270926,491.6987580265468 436.8859400777874,485.48424996990616 429.12513685513113,536.2728547062343 447.88346815395926,533.2026642765468 450.34782362270926,491.6987580265468 "/>
    <polygon stroke="null" id="svg_50" fill="#fff" opacity="0.6" points="450.34782362270926,491.6987580265468 436.8859400777874,485.48424996990616 429.12513685513113,536.2728547062343 447.88346815395926,533.2026642765468 450.34782362270926,491.6987580265468 "/>
    <path stroke="null" id="svg_51" fill="#407BFF" d="m135.39114,147.53348s32.47772,88.77864 30.78579,108.71684s-68.59677,169.30826 -68.59677,169.30826l-55.17166,22.19466s11.36536,-219.39421 92.98264,-300.21976z"/>
    <path stroke="null" id="svg_52" opacity="0.2" d="m135.39114,147.53348s32.47772,88.77864 30.78579,108.71684s-68.59677,169.30826 -68.59677,169.30826l-55.17166,22.19466s11.36536,-219.39421 92.98264,-300.21976z"/>
    <path stroke="null" id="svg_53" fill="#407BFF" d="m252.61253,405.25047s-17.36068,-41.39304 -22.91463,-64.32752s13.86648,-140.75113 3.42064,-180.29462l26.6663,25.22793l-11.2918,147.22457l4.11948,72.16963z"/>
    <path stroke="null" id="svg_54" opacity="0.2" d="m252.61253,405.25047s-17.36068,-41.39304 -22.91463,-64.32752s13.86648,-140.75113 3.42064,-180.29462l26.6663,25.22793l-11.2918,147.22457l4.11948,72.16963z"/>
    <path stroke="null" id="svg_55" fill="#263238" d="m55.72326,340.92295s115.08809,22.19466 96.88144,-189.24646l-18.72158,-1.62761s11.40214,80.34467 -9.59987,132.90902s-70.50938,50.12294 -70.50938,50.12294l1.9494,7.84211z"/>
    <path stroke="null" id="svg_56" fill="#407BFF" d="m165.51487,246.96556l-38.62016,-90.1843l-11.65961,15.49927s-2.05974,-21.86174 4.70798,-28.22421s25.74678,1.59062 33.103,3.47716s12.4688,99.43207 12.4688,99.43207z"/>
    <path stroke="null" id="svg_57" fill="#263238" d="m226.3876,162.03399s14.89635,44.38932 12.4688,113.8586s10.00446,63.69867 10.00446,63.69867l1.76549,-6.54742s-6.95163,-0.8138 -6.39991,-24.22917s3.67811,-117.92762 -5.37004,-142.74865l-12.4688,-4.03203z"/>
    <path stroke="null" id="svg_58" fill="#407BFF" d="m234.1852,244.3022s3.67811,-66.58398 -14.93313,-86.07829c0,0 13.94004,-5.25274 19.60433,0s7.06197,55.96753 -4.04592,88.77864"/>
    <path stroke="null" id="svg_59" fill="#e4897b" d="m140.7244,271.52764s16.84575,39.32154 20.6342,44.79622s87.6126,44.38932 87.6126,44.38932a74.48174,74.90698 0 0 1 20.48708,0c10.33549,1.62761 24.56978,5.99256 25.74678,7.65716s-15.55841,26.22669 -15.55841,26.22669s-33.50759,2.0715 -37.66385,-11.09733c0,0 -84.00805,-31.36845 -93.75504,-39.58048s-36.67076,-57.11426 -36.67076,-57.11426l29.16742,-15.27732z"/>
    <path stroke="null" id="svg_60" fill="#407BFF" d="m119.86951,183.30387c17.94918,0 43.14424,110.19648 47.81544,125.14089s79.11616,46.83073 79.11616,46.83073l-23.65025,28.15023s-80.47706,-29.22297 -89.92981,-42.65074s-38.10523,-89.88837 -39.42935,-107.57012s14.08716,-49.93798 26.07781,-49.90099z"/>
   </g>
  </g>
 </g>

</svg>